<svg aria-hidden="true" style="width:0;height:0;position:absolute;overflow:hidden" xmlns="http://www.w3.org/2000/svg"><defs><symbol id="icon-header-arrow-down" viewBox="0 0 56 32"><path fill="none" stroke="#7e8fdd" style="stroke:var(--color1,#7e8fdd)" stroke-linejoin="round" stroke-linecap="round" stroke-width="8" d="m4 4 24 24L52 4"/></symbol><symbol id="icon-error-cocktails" viewBox="0 0 37 32"><path fill="#fdfdff" style="fill:var(--color2,#fdfdff)" d="M18.824 4.039a.943.943 0 0 0-.896.89h-.118s.035-.814-.896-.857l.005-.129c.074 0 .765-.031.867-.866h.118s-.08.752.92.87v.091zM6.251 17.802a.944.944 0 0 0-.896.89h-.118s.035-.814-.896-.857l.005-.129c.073 0 .765-.031.867-.866h.118s-.08.752.92.87v.091zM37.254 17.302a.944.944 0 0 0-.896.89h-.118s.035-.814-.896-.857l.005-.129c.074 0 .765-.031.867-.866h.118s-.08.752.92.87v.091zM13.973 6.969a.679.679 0 0 0-.645.64h-.084s.025-.585-.645-.616l.003-.093c.053 0 .551-.023.623-.622h.084s-.057.54.661.626v.066h.001zM3.019 13.634a.677.677 0 0 0-.644.64h-.084s.025-.585-.644-.616l.003-.093c.053 0 .551-.023.623-.622h.084s-.057.54.661.626v.066h.001zM12.44 23.968a.679.679 0 0 0-.645.641h-.084s.025-.585-.645-.616l.003-.093c.053 0 .551-.023.623-.622h.084s-.057.541.661.625v.066l.001-.001zM34.964 12.677a.439.439 0 0 0-.417.415h-.055s.016-.379-.417-.4l.003-.06c.035 0 .356-.014.404-.403h.055s-.037.351.428.405v.042zM34.207 24.104a.68.68 0 0 0-.645.64h-.084s.025-.585-.644-.616l.003-.093c.053 0 .551-.023.623-.622h.085s-.057.54.661.625v.066h.001zM13.826.631a.535.535 0 0 0-.507.503h-.067s.019-.46-.506-.485l.003-.073c.041 0 .432-.018.49-.489h.067s-.046.425.519.491v.051h.001zM33.96 2.597a.535.535 0 0 0-.507.503h-.067s.019-.46-.506-.485l.003-.072c.041 0 .433-.018.49-.489h.067s-.046.425.519.491v.051h.001zM10.163 19.317a.311.311 0 0 0-.296.293h-.039s.012-.268-.296-.282l.002-.042c.024 0 .253-.01.286-.286h.039s-.026.248.303.287v.03zM7.166 2.894a.312.312 0 0 0-.296.293h-.039s.012-.268-.296-.282l.002-.042c.024 0 .253-.01.286-.286h.039s-.026.248.303.287v.03zM2.832 23.475a.496.496 0 0 0-.47.466H2.3s.019-.427-.469-.449l.003-.067c.039 0 .401-.016.454-.454h.062s-.042.394.481.455v.048zM33.421 7.692a.312.312 0 0 0-.296.293h-.039s.012-.268-.296-.282l.002-.042c.025 0 .253-.01.286-.286h.039s-.026.248.303.287v.03zM24.915.317a.312.312 0 0 0-.296.293h-.039s.012-.268-.296-.282l.002-.042c.025 0 .253-.01.286-.286h.039s-.026.248.303.287v.03zM17.644 21.694a.312.312 0 0 0-.296.293h-.039s.012-.268-.296-.282l.002-.042c.024 0 .253-.01.286-.286h.039s-.026.248.303.287v.03zM35.287 30.541c0 .286-7.899.517-17.644.517s-17.644-.232-17.644-.517 7.899-.517 17.644-.517c9.744 0 17.644.232 17.644.517z"/><path fill="#9cdfdf" style="fill:var(--color3,#9cdfdf)" d="M19.704 9.826s.1 3.674.349 5.581 1.896 15.022 1.896 15.022h4.441V1.966h-3.093v3.209s-2.595.698-2.495 3.768l-1.097.883zM33.076 9.826s-.1 3.674-.349 5.581-1.896 15.022-1.896 15.022H26.39V1.966h3.093v3.209s2.595.698 2.495 3.768l1.097.883z"/><path fill="#fdfdff" style="fill:var(--color2,#fdfdff)" opacity=".5" d="M19.704 9.826s.1 3.674.349 5.581 1.896 15.022 1.896 15.022h4.441V1.966h-3.093v3.209s-2.595.698-2.495 3.768l-1.097.883zM33.076 9.826s-.1 3.674-.349 5.581-1.896 15.022-1.896 15.022H26.39V1.966h3.093v3.209s2.595.698 2.495 3.768l1.097.883z"/><path fill="#fdfdff" style="fill:var(--color2,#fdfdff)" opacity=".3" d="m23.876 5.165-.044-3.199h1.536l-.275 3.199h-1.217zM23.61 9.826h-2.986l2.423 20.604h2.873L23.61 9.826z"/><path fill="#9cdfdf" style="fill:var(--color3,#9cdfdf)" d="M19.704 9.826c4.283-.026 9.089-.026 13.372 0-4.283.026-9.089.026-13.372 0z"/><path fill="#fdfdff" style="fill:var(--color2,#fdfdff)" opacity=".3" d="M22.049 8.92s-.097-1.559.414-2.385 1.412-1.37 1.412-1.37h1.217s-1.796.81-1.526 3.755h-1.518z"/><path fill="#9cdfdf" style="fill:var(--color3,#9cdfdf)" d="M4.914 30.43s.391-1.673.559-2.454.335-1.394.335-1.394h2.403s.584 2.636.759 3.703l.023.145h-4.08z"/><path fill="#fdfdff" style="fill:var(--color2,#fdfdff)" opacity=".7" d="M4.914 30.43s.391-1.673.559-2.454.335-1.394.335-1.394h2.403s.584 2.636.759 3.703l.023.145h-4.08z"/><path fill="#fdfdff" style="fill:var(--color2,#fdfdff)" opacity=".4" d="m5.507 30.43.479-3.473h.74l-.121 3.473H5.507z"/><path fill="#9cdfdf" style="fill:var(--color3,#9cdfdf)" d="M4.718 22.147s.084 1.171.307 2.203.475 2.621.475 2.621h2.934s.391-2.175.53-2.705.252-2.119.252-2.119l-4.498.001z"/><path fill="#fdfdff" style="fill:var(--color2,#fdfdff)" opacity=".7" d="M4.718 22.147s.084 1.171.307 2.203.475 2.621.475 2.621h2.934s.391-2.175.53-2.705.252-2.119.252-2.119l-4.498.001z"/><path fill="#242424" style="fill:var(--color4,#242424)" opacity=".3" d="M8.293 26.975H5.684l-.03.211h2.695l-.057-.211z"/><path fill="#fdfdff" style="fill:var(--color2,#fdfdff)" opacity=".4" d="m5.296 22.147.69 4.809h.74s-.656-4.027-.589-4.809h-.841z"/><path fill="#7e8fdd" style="fill:var(--color1,#7e8fdd)" d="M24.552 27.462c.578-2.185-.833-4.451-3.151-5.062s-4.665.665-5.243 2.85c-.578 2.185.833 4.451 3.151 5.062s4.666-.665 5.244-2.85z"/><path fill="#242424" style="fill:var(--color4,#242424)" opacity=".3" d="M24.552 27.462c.578-2.185-.833-4.451-3.151-5.062s-4.665.665-5.243 2.85c-.578 2.185.833 4.451 3.151 5.062s4.666-.665 5.244-2.85z"/><path fill="#7e8fdd" style="fill:var(--color1,#7e8fdd)" d="M23.453 28.675c1.319-1.836.897-4.392-.943-5.709s-4.401-.895-5.72.941c-1.319 1.836-.897 4.392.943 5.709s4.401.895 5.72-.941z"/><path fill="#7e8fdd" style="fill:var(--color1,#7e8fdd)" d="M20.378 30.204c2.168-.145 3.808-2.016 3.664-4.18s-2.02-3.801-4.188-3.657c-2.168.145-3.808 2.016-3.664 4.18s2.02 3.801 4.188 3.657z"/><path fill="#fdfdff" style="fill:var(--color2,#fdfdff)" opacity=".8" d="M20.378 30.204c2.168-.145 3.808-2.016 3.664-4.18s-2.02-3.801-4.188-3.657c-2.168.145-3.808 2.016-3.664 4.18s2.02 3.801 4.188 3.657z"/><path fill="#7e8fdd" style="fill:var(--color1,#7e8fdd)" d="M16.584 25.769c-.1.666-.008 1.346.266 1.962a.224.224 0 0 0 .297.112l.02-.01 2.353-1.368a.1.1 0 0 0 .043-.136.097.097 0 0 0-.066-.051l-2.637-.693a.224.224 0 0 0-.272.159l-.005.025h.001zM19.668 26.719l-2.354 1.367a.223.223 0 0 0-.066.325c.401.541.949.957 1.578 1.2a.224.224 0 0 0 .297-.15l.695-2.629a.1.1 0 0 0-.149-.113v-.001zM20.103 26.908l-.695 2.629a.222.222 0 0 0 .185.277 3.562 3.562 0 0 0 1.965-.266.222.222 0 0 0 .115-.293l-.012-.023-1.371-2.349a.101.101 0 0 0-.187.025v-.001zM16.937 25.301l2.633.693a.103.103 0 0 0 .125-.072.103.103 0 0 0-.01-.077l-1.371-2.349a.224.224 0 0 0-.305-.08l-.02.013c-.542.401-.96.946-1.202 1.574a.223.223 0 0 0 .128.289l.024.008h-.001zM20.543 26.735l1.371 2.349a.224.224 0 0 0 .305.08c.007-.004.014-.008.02-.014.542-.4.96-.947 1.202-1.575a.221.221 0 0 0-.152-.296l-2.634-.694a.102.102 0 0 0-.114.151l.001-.001zM20.125 25.675l.695-2.629a.223.223 0 0 0-.16-.273l-.024-.005a3.557 3.557 0 0 0-1.966.267.223.223 0 0 0-.114.294l.011.022 1.371 2.349a.102.102 0 0 0 .186-.025h.001zM20.559 25.863l2.353-1.368a.22.22 0 0 0 .067-.324 3.562 3.562 0 0 0-1.578-1.2.223.223 0 0 0-.297.151l-.695 2.629a.102.102 0 0 0 .151.114l-.001-.001zM20.732 26.302l2.633.693a.222.222 0 0 0 .272-.157c.003-.008.004-.018.005-.026.1-.666.008-1.346-.265-1.962a.224.224 0 0 0-.297-.112l-.02.011-2.354 1.367a.101.101 0 0 0-.035.139c.014.023.036.04.062.047z"/><path fill="#fdfdff" style="fill:var(--color2,#fdfdff)" opacity=".3" d="M16.584 25.769c-.1.666-.008 1.346.266 1.963a.224.224 0 0 0 .297.112l.02-.01 2.353-1.368a.1.1 0 0 0 .043-.136.097.097 0 0 0-.066-.051l-2.637-.693a.223.223 0 0 0-.272.159l-.005.024h.001zM19.668 26.719l-2.354 1.367a.223.223 0 0 0-.066.325c.401.541.949.957 1.578 1.2a.224.224 0 0 0 .297-.15l.695-2.629a.1.1 0 0 0-.149-.113v-.001zM20.103 26.908l-.695 2.629a.222.222 0 0 0 .185.277 3.562 3.562 0 0 0 1.965-.266.222.222 0 0 0 .115-.293c-.003-.008-.008-.015-.012-.023l-1.371-2.349a.101.101 0 0 0-.187.025v-.001zM16.937 25.301l2.633.693a.103.103 0 0 0 .125-.072.103.103 0 0 0-.01-.077l-1.371-2.349a.223.223 0 0 0-.305-.08l-.02.013c-.542.401-.96.946-1.202 1.574a.223.223 0 0 0 .128.289l.024.008h-.001zM20.543 26.735l1.371 2.349a.224.224 0 0 0 .305.08c.007-.004.014-.008.02-.014.542-.4.96-.947 1.202-1.575a.221.221 0 0 0-.127-.288c-.008-.003-.016-.006-.025-.007l-2.634-.694a.103.103 0 0 0-.125.072.102.102 0 0 0 .011.078l.001-.001zM20.125 25.675l.695-2.629a.223.223 0 0 0-.16-.273l-.024-.005a3.557 3.557 0 0 0-1.966.267.223.223 0 0 0-.114.294l.011.022 1.371 2.349a.102.102 0 0 0 .186-.025h.001zM20.559 25.863l2.353-1.368a.22.22 0 0 0 .08-.304l-.013-.02a3.562 3.562 0 0 0-1.578-1.2.223.223 0 0 0-.297.151l-.695 2.628a.102.102 0 0 0 .151.114l-.001-.001zM20.732 26.302l2.633.693a.222.222 0 0 0 .272-.157c.003-.008.004-.018.005-.026.1-.666.008-1.346-.265-1.962a.224.224 0 0 0-.297-.112l-.02.011-2.354 1.367a.101.101 0 0 0 .027.185z"/><path fill="#7e8fdd" style="fill:var(--color1,#7e8fdd)" d="M18.145 26.48c.112-.014.209.017.216.071s-.078.109-.191.123c-.112.014-.209-.017-.216-.071s.078-.11.191-.123z"/><path fill="#fdfdff" style="fill:var(--color2,#fdfdff)" opacity=".6" d="M18.145 26.48c.112-.014.209.017.216.071s-.078.109-.191.123c-.112.014-.209-.017-.216-.071s.078-.11.191-.123z"/><path fill="#7e8fdd" style="fill:var(--color1,#7e8fdd)" d="M18.824 27.57c.084-.075.182-.103.218-.063s-.003.134-.088.209c-.085.074-.182.104-.219.063s.006-.131.089-.209z"/><path fill="#fdfdff" style="fill:var(--color2,#fdfdff)" opacity=".6" d="M18.824 27.57c.084-.075.182-.103.218-.063s-.003.134-.088.209c-.085.074-.182.104-.219.063s.006-.131.089-.209z"/><path fill="#7e8fdd" style="fill:var(--color1,#7e8fdd)" d="M18.781 28.475c.067-.091.155-.14.199-.108s.025.131-.04.223c-.066.092-.156.14-.199.108s-.026-.131.041-.223z"/><path fill="#fdfdff" style="fill:var(--color2,#fdfdff)" opacity=".6" d="M18.781 28.475c.067-.091.155-.14.199-.108s.025.131-.04.223c-.066.092-.156.14-.199.108s-.026-.131.041-.223z"/><path fill="#7e8fdd" style="fill:var(--color1,#7e8fdd)" d="M21.276 24.023c.061-.096.146-.15.192-.122s.035.129-.025.226c-.06.097-.146.15-.192.122s-.033-.128.025-.226z"/><path fill="#fdfdff" style="fill:var(--color2,#fdfdff)" opacity=".6" d="M21.276 24.023c.061-.096.146-.15.192-.122s.035.129-.025.226c-.06.097-.146.15-.192.122s-.033-.128.025-.226z"/><path fill="#7e8fdd" style="fill:var(--color1,#7e8fdd)" d="M21.251 24.907c.066-.092.155-.14.199-.109s.025.131-.041.223-.155.14-.199.109-.026-.131.041-.223z"/><path fill="#fdfdff" style="fill:var(--color2,#fdfdff)" opacity=".6" d="M21.251 24.907c.066-.092.155-.14.199-.109s.025.131-.041.223-.155.14-.199.109-.026-.131.041-.223zM22.422 26.111c.112-.018.209.011.218.064s-.075.11-.188.129c-.111.019-.209-.011-.218-.064s.074-.111.188-.129zM18.157 24.639c-.072-.088-.095-.186-.053-.22s.134.01.205.097c.072.088.096.186.053.22s-.133-.009-.205-.097zM18.426 25.375c-.113-.006-.202-.056-.199-.109s.098-.092.21-.086c.113.006.202.056.199.11s-.097.093-.21.086v-.001zM19.483 23.987c-.012-.112.024-.207.077-.213.053-.005.106.082.117.194s-.024.207-.077.213c-.053.005-.106-.081-.117-.194z"/><path fill="#7e8fdd" style="fill:var(--color1,#7e8fdd)" d="M20.639 28.754c-.012-.111.022-.207.074-.213s.107.081.119.194c.013.112-.022.207-.074.213s-.106-.081-.119-.194z"/><path fill="#fdfdff" style="fill:var(--color2,#fdfdff)" opacity=".6" d="M20.639 28.754c-.012-.111.022-.207.074-.213s.107.081.119.194c.013.112-.022.207-.074.213s-.106-.081-.119-.194z"/><path fill="#7e8fdd" style="fill:var(--color1,#7e8fdd)" d="M21.516 27.356c-.095-.063-.146-.15-.117-.195s.131-.031.226.031.146.149.117.195-.132.03-.226-.031z"/><path fill="#fdfdff" style="fill:var(--color2,#fdfdff)" opacity=".6" d="M21.516 27.356c-.095-.063-.146-.15-.117-.195s.131-.031.226.031.146.149.117.195-.132.03-.226-.031z"/><path fill="#7e8fdd" style="fill:var(--color1,#7e8fdd)" d="M22.297 10.996H6.42s.091 4.781 5.064 5.828c0 0-.33 3.322 2.464 3.659v7.954c-2.952.189-4.185 1.994-4.185 1.994h9.555s-1.395-1.806-4.366-1.994v-7.979c2.599-.456 2.282-3.633 2.282-3.633 4.973-1.047 5.064-5.828 5.064-5.828v-.001z"/><path fill="#fdfdff" style="fill:var(--color2,#fdfdff)" opacity=".7" d="M22.297 10.996H6.42s.091 4.781 5.064 5.828c0 0-.33 3.322 2.464 3.659v7.954c-2.952.189-4.185 1.994-4.185 1.994h9.555s-1.395-1.806-4.366-1.994v-7.979c2.599-.456 2.282-3.633 2.282-3.633 4.973-1.047 5.064-5.828 5.064-5.828v-.001z"/><path fill="#fdfdff" style="fill:var(--color2,#fdfdff)" opacity=".4" d="M21.459 10.996H7.662s.145 4.25 4.467 5.164c0 0-.473 3.613 2.35 3.613h.209c2.259-.398 2.004-3.708 2.004-3.708 4.562-1.133 4.768-5.07 4.768-5.07h-.001z"/><path fill="#7e8fdd" style="fill:var(--color1,#7e8fdd)" opacity=".9" d="M22.297 10.996c0 .305-3.554.553-7.938.553s-7.938-.248-7.938-.553 3.554-.553 7.938-.553 7.938.248 7.938.553z"/><path fill="#fdfdff" style="fill:var(--color2,#fdfdff)" opacity=".7" d="M22.297 10.996c0 .305-3.554.553-7.938.553s-7.938-.248-7.938-.553 3.554-.553 7.938-.553 7.938.248 7.938.553z"/><path fill="#7e8fdd" style="fill:var(--color1,#7e8fdd)" opacity=".9" d="M20.332 13.819c-.678 1.098-1.93 1.822-3.641 2.247 0 0 .255 3.311-2.004 3.708h-.209c-2.823 0-2.35-3.613-2.35-3.613-1.621-.343-2.869-1.079-3.565-2.407 0 0 2.254-.159 4.233.156s3.262.561 5.287.18a15.851 15.851 0 0 1 2.249-.271l.001.001z"/><path fill="#242424" style="fill:var(--color4,#242424)" opacity=".3" d="M8.563 13.753s2.875 1.315 6.949 1.064 4.82-.998 4.82-.998-1.227.028-2.248.271c-1.021.243-2.619.191-3.324.11-.686-.078-3.651-.683-6.197-.446v-.001z"/><path fill="#7e8fdd" style="fill:var(--color1,#7e8fdd)" d="M11.309 15.546 2.926 4.518l.417-.344 8.441 11.073s.007.405-.476.299v-.001z"/><path fill="#242424" style="fill:var(--color4,#242424)" opacity=".3" d="M11.309 15.546 2.926 4.518l.417-.344 8.441 11.073s.007.405-.476.299v-.001z"/><path fill="#7e8fdd" style="fill:var(--color1,#7e8fdd)" d="M10.565 8.279a4.063 4.063 0 0 0-.182-.3c-1.27-1.902-3.758-2.473-5.557-1.276s-2.227 3.71-.957 5.61c.065.099.135.192.208.284l6.489-4.319z"/><path fill="#242424" style="fill:var(--color4,#242424)" opacity=".3" d="M10.565 8.279a4.063 4.063 0 0 0-.182-.3c-1.27-1.902-3.758-2.473-5.557-1.276s-2.227 3.71-.957 5.61c.065.099.135.192.208.284l6.489-4.319z"/><path fill="#7e8fdd" style="fill:var(--color1,#7e8fdd)" d="m10.575 8.273-.064-.102c-1.199-1.796-3.63-2.28-5.429-1.083s-2.285 3.623-1.085 5.418l.069.099 6.509-4.332z"/><path fill="#fdfdff" style="fill:var(--color2,#fdfdff)" opacity=".8" d="M10.439 8.358a3.762 3.762 0 0 0-5.271-1.135 3.746 3.746 0 0 0-1.042 5.201c.022.032.044.062.063.092l6.25-4.157z"/><path fill="#7e8fdd" style="fill:var(--color1,#7e8fdd)" d="m7.656 9.911 2.16-1.443a.214.214 0 0 0 .056-.298c-.003-.006-.008-.011-.012-.016a3.396 3.396 0 0 0-1.574-1.052.215.215 0 0 0-.268.138l-.006.023-.509 2.545a.098.098 0 0 0 .075.117c.027.006.056 0 .079-.016v.002zM7.232 9.756l.51-2.546a.212.212 0 0 0-.19-.253 3.4 3.4 0 0 0-1.858.368.211.211 0 0 0-.08.307L7.06 9.794a.099.099 0 0 0 .173-.036zM6.668 10.37l-2.551-.51a.214.214 0 0 0-.255.192 3.389 3.389 0 0 0 .368 1.855.213.213 0 0 0 .287.092c.007-.003.014-.008.02-.012l2.164-1.441a.098.098 0 0 0-.035-.174l.001-.001zM6.822 9.945l-1.444-2.16a.215.215 0 0 0-.298-.056c-.006.003-.011.008-.016.012A3.384 3.384 0 0 0 4.01 9.312a.214.214 0 0 0 .139.268c.007.003.014.004.022.006l2.55.508a.097.097 0 0 0 .113-.081.098.098 0 0 0-.014-.069h.002z"/><path fill="#fdfdff" style="fill:var(--color2,#fdfdff)" opacity=".3" d="m7.656 9.911 2.16-1.443a.214.214 0 0 0 .056-.298c-.003-.006-.008-.011-.012-.016a3.396 3.396 0 0 0-1.574-1.052.215.215 0 0 0-.268.138l-.006.023-.509 2.545a.098.098 0 0 0 .075.117c.027.006.056 0 .079-.016v.002zM7.232 9.756l.51-2.546a.212.212 0 0 0-.19-.253 3.4 3.4 0 0 0-1.858.368.211.211 0 0 0-.08.307L7.06 9.794a.099.099 0 0 0 .173-.036zM6.668 10.37l-2.551-.51a.214.214 0 0 0-.255.192 3.389 3.389 0 0 0 .368 1.855.213.213 0 0 0 .287.092c.007-.003.014-.008.02-.012l2.164-1.441a.098.098 0 0 0-.035-.174l.001-.001zM6.822 9.945l-1.444-2.16a.215.215 0 0 0-.298-.056c-.006.003-.011.008-.016.012A3.384 3.384 0 0 0 4.01 9.312a.214.214 0 0 0 .139.268c.007.003.014.004.022.006l2.55.508a.097.097 0 0 0 .113-.081.098.098 0 0 0-.014-.069h.002z"/><path fill="#7e8fdd" style="fill:var(--color1,#7e8fdd)" d="M4.987 11.231c-.104.031-.199.016-.214-.033s.057-.116.16-.146c.104-.031.2-.015.215.035s-.058.116-.16.145l-.001-.001z"/><path fill="#fdfdff" style="fill:var(--color2,#fdfdff)" opacity=".6" d="M4.987 11.231c-.104.031-.199.016-.214-.033s.057-.116.16-.146c.104-.031.2-.015.215.035s-.058.116-.16.145l-.001-.001z"/><path fill="#7e8fdd" style="fill:var(--color1,#7e8fdd)" d="M5.566 10.615c-.106.024-.201.003-.211-.048s.062-.112.169-.132c.107-.02.201-.003.212.049s-.064.109-.17.132v-.001z"/><path fill="#fdfdff" style="fill:var(--color2,#fdfdff)" opacity=".6" d="M5.566 10.615c-.106.024-.201.003-.211-.048s.062-.112.169-.132c.107-.02.201-.003.212.049s-.064.109-.17.132v-.001z"/><path fill="#7e8fdd" style="fill:var(--color1,#7e8fdd)" d="M8.444 8.252c-.063.087-.149.135-.191.105s-.024-.126.037-.213.148-.135.19-.105c.042.03.025.126-.036.214z"/><path fill="#fdfdff" style="fill:var(--color2,#fdfdff)" opacity=".6" d="M8.444 8.252c-.063.087-.149.135-.191.105s-.024-.126.037-.213.148-.135.19-.105c.042.03.025.126-.036.214zM5.611 9.095c.08.073.118.163.083.201s-.128.011-.208-.061c-.08-.072-.117-.162-.083-.201s.128-.011.208.061z"/><path fill="#7e8fdd" style="fill:var(--color1,#7e8fdd)" d="M5.289 6.007a.841.841 0 1 1-1.674.166.841.841 0 0 1 1.674-.166z"/><path fill="#fdfdff" style="fill:var(--color2,#fdfdff)" opacity=".3" d="M3.803 5.766s-.202.328-.024.649.438.384.438.384.005-.325-.02-.639-.394-.395-.394-.395h.001z"/><path fill="#fdfdff" style="fill:var(--color2,#fdfdff)" opacity=".27" d="M21.432 11.282c-4.462.361-9.048.348-13.743.002 0 0 .012 2.129 1.872 3.71.622.529 1.492.937 2.574 1.165 0 0-.473 3.613 2.35 3.613h.209c2.259-.398 2.004-3.708 2.004-3.708 1.011-.251 1.802-.53 2.431-.983 2.207-1.592 2.303-3.8 2.303-3.8z"/><path fill="#9cdfdf" style="fill:var(--color3,#9cdfdf)" d="M22.297 10.996c-.005.044-.052.064-.087.082-.271.109-.568.137-.855.18-.993.124-1.994.175-2.994.22-3.663.12-7.35.156-10.999-.22-.287-.043-.584-.072-.855-.18-.035-.019-.081-.039-.087-.082.005.044.052.063.087.082.271.108.568.136.855.178 3.651.366 7.335.315 10.999.212.999-.042 2-.091 2.994-.212.287-.042.584-.07.855-.178.035-.019.081-.038.087-.082z"/><path fill="#242424" style="fill:var(--color4,#242424)" opacity=".3" d="M13.948 20.482v.21s.547.105 1.003-.032v-.203c-.371.091-.593.087-.981.03z"/><path fill="#9cdfdf" style="fill:var(--color3,#9cdfdf)" d="M12.941 28.593a6.196 6.196 0 0 1 2.837-.071 7.025 7.025 0 0 0-2.837.071z"/><path fill="#fdfdff" style="fill:var(--color2,#fdfdff)" opacity=".3" d="M14.359 17.242a.228.228 0 1 0 0-.455.228.228 0 0 0 0 .455zM13.72 17.766a.174.174 0 1 1-.348 0 .174.174 0 0 1 .348 0zM15.881 18.303c.062 0 .112-.05.112-.111a.112.112 0 0 0-.223 0c0 .061.05.111.111.111zM13.398 16.855a.11.11 0 1 0 0-.222.11.11 0 1 0 0 .222zM15.424 18.719a.281.281 0 1 1-.562 0 .281.281 0 0 1 .562 0z"/></symbol><symbol id="icon-pagination-arrow-more" viewBox="0 0 32 32"><path fill="#7e8fdd" style="fill:var(--color1,#7e8fdd)" d="m17.455 16.667-6.788 6.741 1.939 1.926 8.728-8.667L12.606 8l-1.939 1.926 6.788 6.741z"/></symbol><symbol id="icon-pagination-arrow-less" viewBox="0 0 32 32"><path d="m14.545 16.667 6.788 6.741-1.939 1.926-8.727-8.667L19.394 8l1.939 1.926-6.788 6.741z"/></symbol><symbol id="icon-youtube" viewBox="0 0 32 32"><path fill="#fdfdff" style="fill:var(--color2,#fdfdff)" d="M24.24 6c-1.36-.08-4.16-.16-8.4-.16h-.56c-4.08 0-6.8.08-8.16.24-1.84.16-3.12.64-3.84 1.28-.64.56-1.12 1.6-1.28 2.96-.08.88-.16 2.72-.16 5.52v.4c0 2.64.08 4.48.24 5.36.24 1.28.64 2.24 1.44 2.8.8.64 2.16 1.04 4.08 1.2 1.36.08 4.16.16 8.4.16h.56c4.08 0 6.8-.08 8.16-.24 1.84-.16 3.12-.64 3.84-1.28.64-.56 1.12-1.6 1.28-2.96.08-.88.16-2.72.16-5.52v-.4c0-2.64-.08-4.48-.24-5.36-.24-1.28-.64-2.24-1.44-2.8-.8-.64-2.16-1.04-4.08-1.2zm-3.12 9.84-8.8 5.28V10.56l8.8 5.28z"/></symbol><symbol id="icon-instagram" viewBox="0 0 32 32"><path fill="#fdfdff" style="fill:var(--color2,#fdfdff)" d="M23.983 6.229a1.794 1.794 0 0 0-1.758 2.141 1.794 1.794 0 0 0 2.443 1.306 1.79 1.79 0 0 0 1.106-1.656 1.792 1.792 0 0 0-1.792-1.792zm6.869 3.614a11.33 11.33 0 0 0-.687-3.629 7.38 7.38 0 0 0-1.732-2.643 7.01 7.01 0 0 0-2.643-1.717 10.905 10.905 0 0 0-3.629-.702c-1.583-.09-2.091-.09-6.152-.09s-4.57 0-6.152.09a10.905 10.905 0 0 0-3.629.702 7.135 7.135 0 0 0-2.643 1.717 7.01 7.01 0 0 0-1.717 2.643 10.905 10.905 0 0 0-.702 3.629c-.09 1.583-.09 2.091-.09 6.153s0 4.57.09 6.152c.026 1.241.263 2.468.702 3.629.365 1 .952 1.904 1.717 2.643a7.135 7.135 0 0 0 2.643 1.717c1.161.439 2.388.676 3.629.702 1.583.09 2.091.09 6.152.09s4.57 0 6.152-.09a10.905 10.905 0 0 0 3.629-.702c1-.365 1.904-.952 2.643-1.717a7.243 7.243 0 0 0 1.732-2.643 11.33 11.33 0 0 0 .687-3.629c0-1.583.09-2.091.09-6.152s0-4.57-.09-6.153zm-2.688 12.126a8.39 8.39 0 0 1-.508 2.778 4.556 4.556 0 0 1-1.12 1.717 4.763 4.763 0 0 1-1.717 1.12 8.39 8.39 0 0 1-2.778.508c-1.493.075-2.046.09-5.973.09s-4.48 0-5.973-.09a8.566 8.566 0 0 1-2.897-.448 4.885 4.885 0 0 1-1.643-1.12 4.48 4.48 0 0 1-1.105-1.717 8.25 8.25 0 0 1-.597-2.837c0-1.493-.09-2.046-.09-5.973s0-4.48.09-5.973a8.281 8.281 0 0 1 .523-2.837 4.482 4.482 0 0 1 1.18-1.643 4.7 4.7 0 0 1 1.643-1.195 8.58 8.58 0 0 1 2.837-.508c1.493 0 2.046-.09 5.973-.09s4.48 0 5.973.09a8.39 8.39 0 0 1 2.778.508 4.56 4.56 0 0 1 1.777 1.195c.489.459.872 1.02 1.12 1.643a8.37 8.37 0 0 1 .508 2.837c.075 1.493.09 2.046.09 5.973s-.015 4.48-.09 5.973zM16.008 8.335a7.667 7.667 0 0 0-7.067 4.739 7.66 7.66 0 0 0 10.017 9.997 7.657 7.657 0 0 0 4.726-7.077 7.645 7.645 0 0 0-7.675-7.66zm0 12.634a4.979 4.979 0 0 1-4.595-3.07 4.975 4.975 0 0 1 3.624-6.78 4.974 4.974 0 0 1 5.564 6.781 4.965 4.965 0 0 1-2.691 2.691 4.97 4.97 0 0 1-1.903.379z"/></symbol><symbol id="icon-footer-facebook" viewBox="0 0 18 32"><path fill="#fdfdff" style="fill:var(--color2,#fdfdff)" d="M14.45 5.602h2.924V.655a40.727 40.727 0 0 0-4.262-.218c-4.231 0-7.124 2.582-7.124 7.311v4.076H1.212v5.538h4.776v14.187h5.724V17.362h4.76l.716-5.538h-5.476V8.293c0-1.633.436-2.691 2.738-2.691z"/></symbol><symbol id="icon-remove" viewBox="0 0 32 32"><path fill="none" stroke="#fdfdff" style="stroke:var(--color2,#fdfdff)" stroke-linejoin="round" stroke-linecap="round" stroke-width="2.667" d="M21.333 8V6.933c0-1.493 0-2.24-.291-2.811a2.666 2.666 0 0 0-1.165-1.165c-.57-.291-1.317-.291-2.811-.291h-2.133c-1.493 0-2.24 0-2.811.291-.502.256-.91.664-1.165 1.165-.291.57-.291 1.317-.291 2.811V8m2.667 7.333V22m5.334-6.667V22M4 8h24m-2.667 0v14.933c0 2.24 0 3.36-.436 4.216a3.991 3.991 0 0 1-1.748 1.748c-.856.436-1.976.436-4.216.436h-5.867c-2.24 0-3.36 0-4.216-.436a3.991 3.991 0 0 1-1.748-1.748c-.436-.856-.436-1.976-.436-4.216V8"/></symbol><symbol id="icon-close" viewBox="0 0 32 32"><path stroke-linejoin="round" stroke-linecap="round" stroke-width="2.667" d="M24 8 8 24M8 8l16 16"/></symbol><symbol id="icon-footer-heart" viewBox="0 0 32 32"><path fill="none" stroke="#fdfdff" style="stroke:var(--color2,#fdfdff)" stroke-linejoin="round" stroke-linecap="round" stroke-width="2.667" d="M27.787 6.146a7.326 7.326 0 0 0-10.373 0l-1.413 1.413-1.413-1.413a7.333 7.333 0 0 0-10.374 0 7.333 7.333 0 0 0 0 10.374l11.787 11.787L27.788 16.52a7.345 7.345 0 0 0 2.15-5.187 7.33 7.33 0 0 0-2.15-5.187z"/></symbol><symbol id="icon-hero-background" viewBox="0 0 32 32"><path d="M7.217 20.604a12.433 12.433 0 0 1 13.332 4.076 12.433 12.433 0 0 1 4.076-13.332 12.433 12.433 0 0 1-13.332-4.076 12.433 12.433 0 0 1-4.076 13.332zm-1.791.71a11.996 11.996 0 0 0 4.779-15.632l.378-.201a11.996 11.996 0 0 0 15.632 4.779l.201.378a11.996 11.996 0 0 0-4.779 15.632l-.377.201a11.996 11.996 0 0 0-15.632-4.779l-.201-.378z"/><path d="M21.015 22.593c.291 1.034.442 1.884.45 2.499.004.309-.028.535-.08.688-.051.151-.109.197-.139.213s-.101.038-.254-.004c-.156-.043-.361-.143-.615-.319-.506-.351-1.126-.951-1.82-1.771-1.384-1.634-3.002-4.071-4.518-6.922s-2.631-5.556-3.212-7.617c-.291-1.034-.442-1.884-.45-2.499-.004-.309.028-.535.08-.688.051-.151.109-.197.139-.213s.101-.038.254.004c.156.043.361.143.615.319.506.351 1.126.951 1.821 1.771 1.384 1.634 3.002 4.07 4.518 6.922s2.631 5.556 3.212 7.617zm.432 3.777c1.248-.664-.215-5.855-3.267-11.595s-6.538-9.856-7.786-9.193c-1.248.664.215 5.855 3.267 11.595s6.538 9.856 7.786 9.193z"/><path d="M9.305 21.07c-1.034.291-1.884.442-2.499.45-.309.004-.535-.028-.688-.08-.151-.051-.197-.109-.213-.139s-.038-.101.004-.254c.043-.156.143-.361.319-.615.351-.506.951-1.126 1.771-1.82 1.634-1.384 4.071-3.002 6.922-4.518s5.556-2.631 7.617-3.212c1.034-.291 1.884-.442 2.499-.45.309-.004.535.028.688.079.151.051.197.109.213.139s.038.101-.004.254c-.043.156-.143.361-.319.615-.352.506-.951 1.126-1.771 1.82-1.634 1.384-4.071 3.002-6.922 4.518s-5.556 2.631-7.617 3.212zm-3.778.433c.663 1.248 5.855-.215 11.595-3.267s9.856-6.538 9.193-7.786c-.664-1.248-5.855.215-11.595 3.267s-9.856 6.538-9.193 7.786z"/></symbol><symbol id="icon-search" viewBox="0 0 32 32"><path d="m29.091 31.514-6.85-6.862c-1.077.935-2.334 1.663-3.77 2.185s-2.962.782-4.578.782c-3.877 0-7.163-1.349-9.855-4.046s-4.039-5.952-4.039-9.764c0-3.812 1.346-7.067 4.039-9.764s5.96-4.046 9.801-4.046c3.806 0 7.046 1.349 9.721 4.046s4.012 5.952 4.012 9.764c0 1.546-.251 3.039-.754 4.477s-1.257 2.787-2.262 4.046l6.958 6.862c.323.288.485.656.485 1.106s-.179.854-.539 1.214c-.323.324-.718.486-1.185.486s-.862-.162-1.185-.486zm-15.252-7.131c2.908 0 5.385-1.034 7.432-3.102s3.07-4.558 3.07-7.471-1.023-5.403-3.07-7.471c-2.046-2.068-4.524-3.102-7.432-3.102-2.944 0-5.448 1.034-7.513 3.102s-3.097 4.558-3.097 7.471c0 2.913 1.032 5.403 3.097 7.471s4.569 3.102 7.513 3.102z"/></symbol><symbol id="icon-hero-logo-cocktail" viewBox="0 0 37 32"><path d="M25.707 1.067C23.68 2.24 25.067 5.44 27.2 4.694c1.707-.64 2.133-3.093.747-4.053-.427-.213-1.493-.107-2.24.427zM14.72 6.187c-7.787.213-10.453.64-10.453 1.707 0 .747 3.093 4.267 6.933 7.787 6.613 6.08 6.933 6.613 7.04 11.627l.213 5.227.64-5.653c.64-5.227 1.173-6.08 7.36-11.52 3.627-3.307 6.613-6.613 6.613-7.36 0-1.707-4.907-2.24-18.347-1.813zm7.467 3.626c-.32.747-2.773 1.6-5.653 1.92l-5.227.533 3.52 2.88c2.56 2.24 3.947 2.773 5.227 2.027 2.667-1.387 6.08-5.44 4.693-5.44-.747 0-1.28-.747-1.28-1.6 0-1.067 1.067-1.6 3.413-1.6h3.413l-5.227 5.333c-2.88 2.88-5.76 5.333-6.4 5.333s-3.52-2.453-6.4-5.333L7.039 8.533h7.787c5.76 0 7.68.32 7.36 1.28z"/></symbol><symbol id="icon-align-justify" viewBox="0 0 32 32"><path stroke-linejoin="round" stroke-linecap="round" stroke-width="2" d="M28 13.334H4M28 8H4M28 18.666H4M28 24H4"/></symbol><symbol id="icon-hero-rectangle" viewBox="0 0 27 32"><path fill="#7e8fdd" style="fill:var(--color1,#7e8fdd)" d="M3.834 6.492a4.089 4.089 0 0 1 4.089-4.089h15.335v20.243a4.089 4.089 0 0 1-4.089 4.089H3.834V6.492z"/></symbol><symbol id="icon-round-hero" viewBox="0 0 32 32"><path fill="#7e8fdd" style="fill:var(--color1,#7e8fdd)" d="M32 16c0 8.837-7.163 16-16 16S0 24.837 0 16 7.163 0 16 0s16 7.163 16 16z"/></symbol><symbol id="icon-round-hero-second" viewBox="0 0 32 32"><path fill="#9cdfdf" style="fill:var(--color1,#9cdfdf)" d="M32 16c0 8.837-7.163 16-16 16S0 24.837 0 16 7.163 0 16 0s16 7.163 16 16z"/></symbol><symbol id="icon-burger-arrow-down" viewBox="0 0 24 24" fill="none"><path d="m6 9 6 6 6-6" stroke="#FDFDFF" stroke-width="2" stroke-linecap="round" stroke-linejoin="round"/></symbol></defs></svg>