<svg width="256" height="256" viewBox="0 0 47.5 47.5" id="svg2" version="1.1" xml:space="preserve" xmlns="http://www.w3.org/2000/svg" fill="#000"><g id="SVGRepo_iconCarrier"><defs id="defs6"><clipPath clipPathUnits="userSpaceOnUse" id="clipPath16"><path d="M0 38h38V0H0v38Z" id="path18"/></clipPath><clipPath clipPathUnits="userSpaceOnUse" id="clipPath36"><path d="M0 38h38V0H0v38Z" id="path38"/></clipPath></defs><g id="g10" transform="matrix(1.25 0 0 -1.25 0 47.5)"><g id="g12"><g clip-path="url('#clipPath16')" id="g14"><g id="g20" transform="translate(20 16.745)"><path d="M0 0s11.458 11.041 12.583 12.005c1.125.964-.708 2.25-2.957 2.25h-22.497c-1.125 0-4.483-.73-2.796-2.417C-14.463 10.635-3 0-3 0v-10.123s-4.584-2.34-5.498-2.883c-.984-.562-.33-1.462.063-1.617.657-.258 2.254-1.102 6.781-1.102 4.64 0 6.202.914 6.764 1.102.217.072 1.347.932.011 1.723C2.743-11.492 0-10.123 0-10.123V0Z" id="path22" style="fill:#7e8fdd;fill-opacity:1;fill-rule:nonzero;stroke:none"/></g><g id="g24" transform="translate(33 29.558)"><path d="M0 0c0-1.621-6.547-2.935-14.623-2.935S-29.246-1.621-29.246 0c0 1.622 6.547 2.935 14.623 2.935S0 1.622 0 0" id="path26" style="fill:#ccd6dd;fill-opacity:1;fill-rule:nonzero;stroke:none"/></g><g id="g28" transform="translate(5.458 29.416)"><path d="M0 0c1.265-1.232 8.537-7.235 11.699-9.835.9-.742 2.134-.623 2.801-.123.667.5 11.167 9.583 11.167 9.583L0 0Z" id="path30" style="fill:#ccd6dd;fill-opacity:1;fill-rule:nonzero;stroke:none"/></g></g></g><g id="g32"><g clip-path="url('#clipPath36')" id="g34"><g id="g40" transform="translate(17.868 20.468)"><path d="M0 0c-.237.125-.05.8.249 1.328l7.448 14.518a1.1 1.1 0 1 0 1.914-1.082L.943.879C.793.615.27-.141 0 0" id="path42" style="fill:#7e8fdd;fill-opacity:1;fill-rule:nonzero;stroke:none"/></g><g id="g44" transform="translate(22.745 29.145)"><path d="M0 0c1.133-.639 1.996-2.636 1.2-4.046-.797-1.411-2.954-1.699-4.087-1.058-1.132.639-2.065 2.514-1.199 4.045C-3.221.473-1.133.64 0 0" id="path46" style="fill:#5c913b;fill-opacity:1;fill-rule:nonzero;stroke:none"/></g><g id="g48" transform="translate(17.797 26.239)"><path d="M0 0c-3.775 0-7.361.49-10.737 1.471l-.129.037a1.002 1.002 0 0 0 .555 1.922l.132-.038c6.533-1.899 13.943-1.855 22.018.132a.998.998 0 0 0 1.21-.732.999.999 0 0 0-.732-1.21C8.029.527 3.914 0 0 0" id="path50" style="fill:#fff;fill-opacity:1;fill-rule:nonzero;stroke:none"/></g></g></g></g></g></svg>