<svg aria-hidden="true" style="position: absolute; width: 0; height: 0; overflow: hidden;" version="1.1"
    xmlns="http://www.w3.org/2000/svg" xmlns:xlink="http://www.w3.org/1999/xlink">
    <defs>
        <symbol id="icon-header-arrow-down" viewBox="0 0 56 32">
            <path fill="none" stroke="#7e8fdd" style="stroke: var(--color1, #7e8fdd)" stroke-linejoin="round"
                stroke-linecap="round" stroke-miterlimit="4" stroke-width="8" d="M4 4l24 24 24-24"></path>
        </symbol>
        <symbol id="icon-error-cocktails" viewBox="0 0 37 32">
            <path fill="#fdfdff" style="fill: var(--color2, #fdfdff)"
                d="M18.824 4.039c-0.074 0-0.795 0.056-0.896 0.89h-0.118c0 0 0.035-0.814-0.896-0.857l0.005-0.129c0.074 0 0.765-0.031 0.867-0.866h0.118c0 0-0.080 0.752 0.92 0.87v0.091z">
            </path>
            <path fill="#fdfdff" style="fill: var(--color2, #fdfdff)"
                d="M6.251 17.802c-0.074 0-0.795 0.057-0.896 0.89h-0.118c0 0 0.035-0.814-0.896-0.857l0.005-0.129c0.073 0 0.765-0.031 0.867-0.866h0.118c0 0-0.080 0.752 0.92 0.87v0.091z">
            </path>
            <path fill="#fdfdff" style="fill: var(--color2, #fdfdff)"
                d="M37.254 17.302c-0.074 0-0.795 0.057-0.896 0.89h-0.118c0 0 0.035-0.814-0.896-0.857l0.005-0.129c0.074 0 0.765-0.031 0.867-0.866h0.118c0 0-0.080 0.752 0.92 0.87v0.091z">
            </path>
            <path fill="#fdfdff" style="fill: var(--color2, #fdfdff)"
                d="M13.973 6.969c-0.053 0-0.572 0.040-0.645 0.64h-0.084c0 0 0.025-0.585-0.645-0.616l0.003-0.093c0.053 0 0.551-0.023 0.623-0.622h0.084c0 0-0.057 0.54 0.661 0.626v0.066h0.001z">
            </path>
            <path fill="#fdfdff" style="fill: var(--color2, #fdfdff)"
                d="M3.019 13.634c-0.053 0-0.572 0.040-0.644 0.64h-0.084c0 0 0.025-0.585-0.644-0.616l0.003-0.093c0.053 0 0.551-0.023 0.623-0.622h0.084c0 0-0.057 0.54 0.661 0.626v0.066h0.001z">
            </path>
            <path fill="#fdfdff" style="fill: var(--color2, #fdfdff)"
                d="M12.44 23.968c-0.053 0-0.572 0.040-0.645 0.641h-0.084c0 0 0.025-0.585-0.645-0.616l0.003-0.093c0.053 0 0.551-0.023 0.623-0.622h0.084c0 0-0.057 0.541 0.661 0.625v0.066l0.001-0.001z">
            </path>
            <path fill="#fdfdff" style="fill: var(--color2, #fdfdff)"
                d="M34.964 12.677c-0.035 0-0.37 0.026-0.417 0.415h-0.055c0 0 0.016-0.379-0.417-0.4l0.003-0.060c0.035 0 0.356-0.014 0.404-0.403h0.055c0 0-0.037 0.351 0.428 0.405v0.042z">
            </path>
            <path fill="#fdfdff" style="fill: var(--color2, #fdfdff)"
                d="M34.207 24.104c-0.053 0-0.571 0.040-0.645 0.64h-0.084c0 0 0.025-0.585-0.644-0.616l0.003-0.093c0.053 0 0.551-0.023 0.623-0.622h0.085c0 0-0.057 0.54 0.661 0.625v0.066h0.001z">
            </path>
            <path fill="#fdfdff" style="fill: var(--color2, #fdfdff)"
                d="M13.826 0.631c-0.041 0-0.449 0.032-0.507 0.503h-0.067c0 0 0.019-0.46-0.506-0.485l0.003-0.073c0.041 0 0.432-0.018 0.49-0.489h0.067c0 0-0.046 0.425 0.519 0.491v0.051h0.001z">
            </path>
            <path fill="#fdfdff" style="fill: var(--color2, #fdfdff)"
                d="M33.96 2.597c-0.041 0-0.449 0.032-0.507 0.503h-0.067c0 0 0.019-0.46-0.506-0.485l0.003-0.072c0.041 0 0.433-0.018 0.49-0.489h0.067c0 0-0.046 0.425 0.519 0.491v0.051h0.001z">
            </path>
            <path fill="#fdfdff" style="fill: var(--color2, #fdfdff)"
                d="M10.163 19.317c-0.024 0-0.262 0.018-0.296 0.293h-0.039c0 0 0.012-0.268-0.296-0.282l0.002-0.042c0.024 0 0.253-0.010 0.286-0.286h0.039c0 0-0.026 0.248 0.303 0.287v0.030z">
            </path>
            <path fill="#fdfdff" style="fill: var(--color2, #fdfdff)"
                d="M7.166 2.894c-0.024 0-0.262 0.019-0.296 0.293h-0.039c0 0 0.012-0.268-0.296-0.282l0.002-0.042c0.024 0 0.253-0.010 0.286-0.286h0.039c0 0-0.026 0.248 0.303 0.287v0.030z">
            </path>
            <path fill="#fdfdff" style="fill: var(--color2, #fdfdff)"
                d="M2.832 23.475c-0.039 0-0.416 0.030-0.47 0.466h-0.062c0 0 0.019-0.427-0.469-0.449l0.003-0.067c0.039 0 0.401-0.016 0.454-0.454h0.062c0 0-0.042 0.394 0.481 0.455v0.048z">
            </path>
            <path fill="#fdfdff" style="fill: var(--color2, #fdfdff)"
                d="M33.421 7.692c-0.025 0-0.262 0.019-0.296 0.293h-0.039c0 0 0.012-0.268-0.296-0.282l0.002-0.042c0.025 0 0.253-0.010 0.286-0.286h0.039c0 0-0.026 0.248 0.303 0.287v0.030z">
            </path>
            <path fill="#fdfdff" style="fill: var(--color2, #fdfdff)"
                d="M24.915 0.317c-0.025 0-0.262 0.019-0.296 0.293h-0.039c0 0 0.012-0.268-0.296-0.282l0.002-0.042c0.025 0 0.253-0.010 0.286-0.286h0.039c0 0-0.026 0.248 0.303 0.287v0.030z">
            </path>
            <path fill="#fdfdff" style="fill: var(--color2, #fdfdff)"
                d="M17.644 21.694c-0.025 0-0.262 0.019-0.296 0.293h-0.039c0 0 0.012-0.268-0.296-0.282l0.002-0.042c0.024 0 0.253-0.010 0.286-0.286h0.039c0 0-0.026 0.248 0.303 0.287v0.030z">
            </path>
            <path fill="#fdfdff" style="fill: var(--color2, #fdfdff)"
                d="M35.287 30.541c0 0.286-7.899 0.517-17.644 0.517s-17.644-0.232-17.644-0.517 7.899-0.517 17.644-0.517c9.744 0 17.644 0.232 17.644 0.517z">
            </path>
            <path fill="#9cdfdf" style="fill: var(--color3, #9cdfdf)"
                d="M19.704 9.826c0 0 0.1 3.674 0.349 5.581s1.896 15.022 1.896 15.022h4.441v-28.463h-3.093v3.209c0 0-2.595 0.698-2.495 3.768l-1.097 0.883z">
            </path>
            <path fill="#9cdfdf" style="fill: var(--color3, #9cdfdf)"
                d="M33.076 9.826c0 0-0.1 3.674-0.349 5.581s-1.896 15.022-1.896 15.022h-4.441v-28.463h3.093v3.209c0 0 2.595 0.698 2.495 3.768l1.097 0.883z">
            </path>
            <path fill="#fdfdff" style="fill: var(--color2, #fdfdff)" opacity="0.5"
                d="M19.704 9.826c0 0 0.1 3.674 0.349 5.581s1.896 15.022 1.896 15.022h4.441v-28.463h-3.093v3.209c0 0-2.595 0.698-2.495 3.768l-1.097 0.883z">
            </path>
            <path fill="#fdfdff" style="fill: var(--color2, #fdfdff)" opacity="0.5"
                d="M33.076 9.826c0 0-0.1 3.674-0.349 5.581s-1.896 15.022-1.896 15.022h-4.441v-28.463h3.093v3.209c0 0 2.595 0.698 2.495 3.768l1.097 0.883z">
            </path>
            <path fill="#fdfdff" style="fill: var(--color2, #fdfdff)" opacity="0.3"
                d="M23.876 5.165l-0.044-3.199h1.536l-0.275 3.199h-1.217z"></path>
            <path fill="#fdfdff" style="fill: var(--color2, #fdfdff)" opacity="0.3"
                d="M23.61 9.826h-2.986l2.423 20.604h2.873l-2.31-20.604z"></path>
            <path fill="#9cdfdf" style="fill: var(--color3, #9cdfdf)"
                d="M19.704 9.826c4.283-0.026 9.089-0.026 13.372 0-4.283 0.026-9.089 0.026-13.372 0z"></path>
            <path fill="#fdfdff" style="fill: var(--color2, #fdfdff)" opacity="0.3"
                d="M22.049 8.92c0 0-0.097-1.559 0.414-2.385s1.412-1.37 1.412-1.37h1.217c0 0-1.796 0.81-1.526 3.755h-1.518z">
            </path>
            <path fill="#9cdfdf" style="fill: var(--color3, #9cdfdf)"
                d="M4.914 30.43c0 0 0.391-1.673 0.559-2.454s0.335-1.394 0.335-1.394h2.403c0 0 0.584 2.636 0.759 3.703 0.008 0.052 0.016 0.1 0.023 0.145h-4.080z">
            </path>
            <path fill="#fdfdff" style="fill: var(--color2, #fdfdff)" opacity="0.7"
                d="M4.914 30.43c0 0 0.391-1.673 0.559-2.454s0.335-1.394 0.335-1.394h2.403c0 0 0.584 2.636 0.759 3.703 0.008 0.052 0.016 0.1 0.023 0.145h-4.080z">
            </path>
            <path fill="#fdfdff" style="fill: var(--color2, #fdfdff)" opacity="0.4"
                d="M5.507 30.43l0.479-3.473h0.74l-0.121 3.473h-1.098z"></path>
            <path fill="#9cdfdf" style="fill: var(--color3, #9cdfdf)"
                d="M4.718 22.147c0 0 0.084 1.171 0.307 2.203s0.475 2.621 0.475 2.621h2.934c0 0 0.391-2.175 0.53-2.705s0.252-2.119 0.252-2.119l-4.498 0.001z">
            </path>
            <path fill="#fdfdff" style="fill: var(--color2, #fdfdff)" opacity="0.7"
                d="M4.718 22.147c0 0 0.084 1.171 0.307 2.203s0.475 2.621 0.475 2.621h2.934c0 0 0.391-2.175 0.53-2.705s0.252-2.119 0.252-2.119l-4.498 0.001z">
            </path>
            <path fill="#242424" style="fill: var(--color4, #242424)" opacity="0.3"
                d="M8.293 26.975h-2.609l-0.030 0.211h2.695l-0.057-0.211z"></path>
            <path fill="#fdfdff" style="fill: var(--color2, #fdfdff)" opacity="0.4"
                d="M5.296 22.147l0.69 4.809h0.74c0 0-0.656-4.027-0.589-4.809h-0.841z"></path>
            <path fill="#7e8fdd" style="fill: var(--color1, #7e8fdd)"
                d="M24.552 27.462c0.578-2.185-0.833-4.451-3.151-5.062s-4.665 0.665-5.243 2.85c-0.578 2.185 0.833 4.451 3.151 5.062s4.666-0.665 5.244-2.85z">
            </path>
            <path fill="#242424" style="fill: var(--color4, #242424)" opacity="0.3"
                d="M24.552 27.462c0.578-2.185-0.833-4.451-3.151-5.062s-4.665 0.665-5.243 2.85c-0.578 2.185 0.833 4.451 3.151 5.062s4.666-0.665 5.244-2.85z">
            </path>
            <path fill="#7e8fdd" style="fill: var(--color1, #7e8fdd)"
                d="M23.453 28.675c1.319-1.836 0.897-4.392-0.943-5.709s-4.401-0.895-5.72 0.941c-1.319 1.836-0.897 4.392 0.943 5.709s4.401 0.895 5.72-0.941z">
            </path>
            <path fill="#7e8fdd" style="fill: var(--color1, #7e8fdd)"
                d="M20.378 30.204c2.168-0.145 3.808-2.016 3.664-4.18s-2.020-3.801-4.188-3.657c-2.168 0.145-3.808 2.016-3.664 4.18s2.020 3.801 4.188 3.657z">
            </path>
            <path fill="#fdfdff" style="fill: var(--color2, #fdfdff)" opacity="0.8"
                d="M20.378 30.204c2.168-0.145 3.808-2.016 3.664-4.18s-2.020-3.801-4.188-3.657c-2.168 0.145-3.808 2.016-3.664 4.18s2.020 3.801 4.188 3.657z">
            </path>
            <path fill="#7e8fdd" style="fill: var(--color1, #7e8fdd)"
                d="M16.584 25.769c-0.1 0.666-0.008 1.346 0.266 1.962 0.051 0.113 0.183 0.163 0.297 0.112 0.007-0.003 0.013-0.007 0.020-0.010l2.353-1.368c0.050-0.025 0.068-0.087 0.043-0.136-0.014-0.026-0.037-0.045-0.066-0.051l-2.637-0.693c-0.119-0.031-0.241 0.041-0.272 0.159-0.002 0.008-0.003 0.016-0.005 0.025h0.001z">
            </path>
            <path fill="#7e8fdd" style="fill: var(--color1, #7e8fdd)"
                d="M19.668 26.719l-2.354 1.367c-0.107 0.062-0.142 0.2-0.079 0.306 0.004 0.007 0.008 0.013 0.013 0.019 0.401 0.541 0.949 0.957 1.578 1.2 0.116 0.045 0.245-0.013 0.29-0.128 0.003-0.008 0.005-0.014 0.007-0.022l0.695-2.629c0.015-0.054-0.017-0.109-0.071-0.124-0.027-0.008-0.055-0.003-0.078 0.011v-0.001z">
            </path>
            <path fill="#7e8fdd" style="fill: var(--color1, #7e8fdd)"
                d="M20.103 26.908l-0.695 2.629c-0.031 0.119 0.039 0.241 0.159 0.272 0.008 0.003 0.017 0.004 0.026 0.005 0.667 0.099 1.348 0.007 1.965-0.266 0.113-0.050 0.165-0.181 0.115-0.293-0.003-0.007-0.008-0.015-0.012-0.023l-1.371-2.349c-0.027-0.049-0.089-0.066-0.138-0.039-0.025 0.014-0.042 0.036-0.049 0.064v-0.001z">
            </path>
            <path fill="#7e8fdd" style="fill: var(--color1, #7e8fdd)"
                d="M16.937 25.301l2.633 0.693c0.054 0.014 0.11-0.018 0.125-0.072 0.007-0.026 0.003-0.054-0.010-0.077l-1.371-2.349c-0.063-0.106-0.199-0.142-0.305-0.080-0.007 0.004-0.014 0.008-0.020 0.013-0.542 0.401-0.96 0.946-1.202 1.574-0.045 0.115 0.013 0.244 0.128 0.289 0.008 0.003 0.015 0.006 0.024 0.008h-0.001z">
            </path>
            <path fill="#7e8fdd" style="fill: var(--color1, #7e8fdd)"
                d="M20.543 26.735l1.371 2.349c0.063 0.106 0.199 0.142 0.305 0.080 0.007-0.004 0.014-0.008 0.020-0.014 0.542-0.4 0.96-0.947 1.202-1.575 0.045-0.115-0.012-0.244-0.127-0.288-0.008-0.003-0.016-0.006-0.025-0.008l-2.634-0.694c-0.054-0.014-0.11 0.018-0.125 0.073-0.007 0.026-0.003 0.054 0.011 0.078l0.001-0.001z">
            </path>
            <path fill="#7e8fdd" style="fill: var(--color1, #7e8fdd)"
                d="M20.125 25.675l0.695-2.629c0.031-0.12-0.040-0.242-0.16-0.273-0.007-0.002-0.016-0.003-0.024-0.005-0.667-0.099-1.349-0.007-1.966 0.267-0.112 0.050-0.164 0.181-0.114 0.294 0.003 0.007 0.007 0.014 0.011 0.022l1.371 2.349c0.029 0.048 0.091 0.065 0.139 0.036 0.023-0.014 0.040-0.035 0.047-0.061h0.001z">
            </path>
            <path fill="#7e8fdd" style="fill: var(--color1, #7e8fdd)"
                d="M20.559 25.863l2.353-1.368c0.107-0.062 0.143-0.198 0.080-0.304-0.004-0.007-0.008-0.013-0.013-0.020-0.401-0.541-0.949-0.957-1.578-1.2-0.115-0.045-0.244 0.012-0.289 0.126-0.003 0.008-0.006 0.016-0.008 0.025l-0.695 2.629c-0.014 0.054 0.018 0.11 0.073 0.125 0.026 0.007 0.054 0.003 0.078-0.011l-0.001-0.001z">
            </path>
            <path fill="#7e8fdd" style="fill: var(--color1, #7e8fdd)"
                d="M20.732 26.302l2.633 0.693c0.118 0.032 0.241-0.039 0.272-0.157 0.003-0.008 0.004-0.018 0.005-0.026 0.1-0.666 0.008-1.346-0.265-1.962-0.051-0.113-0.183-0.163-0.297-0.112-0.007 0.003-0.013 0.007-0.020 0.011l-2.354 1.367c-0.048 0.029-0.064 0.091-0.035 0.139 0.014 0.023 0.036 0.040 0.062 0.047z">
            </path>
            <path fill="#fdfdff" style="fill: var(--color2, #fdfdff)" opacity="0.3"
                d="M16.584 25.769c-0.1 0.666-0.008 1.346 0.266 1.963 0.051 0.113 0.183 0.163 0.297 0.112 0.007-0.003 0.013-0.007 0.020-0.010l2.353-1.368c0.050-0.025 0.068-0.087 0.043-0.136-0.014-0.026-0.037-0.045-0.066-0.051l-2.637-0.693c-0.119-0.031-0.241 0.040-0.272 0.159-0.002 0.008-0.003 0.016-0.005 0.024h0.001z">
            </path>
            <path fill="#fdfdff" style="fill: var(--color2, #fdfdff)" opacity="0.3"
                d="M19.668 26.719l-2.354 1.367c-0.107 0.062-0.142 0.2-0.079 0.306 0.004 0.007 0.008 0.014 0.013 0.019 0.401 0.541 0.949 0.957 1.578 1.2 0.116 0.045 0.245-0.013 0.29-0.128 0.003-0.007 0.005-0.014 0.007-0.022l0.695-2.629c0.015-0.054-0.017-0.109-0.071-0.124-0.027-0.008-0.055-0.003-0.078 0.011v-0.001z">
            </path>
            <path fill="#fdfdff" style="fill: var(--color2, #fdfdff)" opacity="0.3"
                d="M20.103 26.908l-0.695 2.629c-0.031 0.119 0.039 0.241 0.159 0.272 0.008 0.003 0.017 0.004 0.026 0.005 0.667 0.099 1.348 0.007 1.965-0.266 0.113-0.050 0.165-0.181 0.115-0.293-0.003-0.008-0.008-0.015-0.012-0.023l-1.371-2.349c-0.027-0.049-0.089-0.066-0.138-0.039-0.025 0.013-0.042 0.036-0.049 0.064v-0.001z">
            </path>
            <path fill="#fdfdff" style="fill: var(--color2, #fdfdff)" opacity="0.3"
                d="M16.937 25.301l2.633 0.693c0.054 0.014 0.11-0.018 0.125-0.072 0.007-0.026 0.003-0.054-0.010-0.077l-1.371-2.349c-0.062-0.106-0.198-0.142-0.305-0.080-0.007 0.004-0.014 0.008-0.020 0.013-0.542 0.401-0.96 0.946-1.202 1.574-0.045 0.115 0.013 0.244 0.128 0.289 0.008 0.003 0.015 0.006 0.024 0.008h-0.001z">
            </path>
            <path fill="#fdfdff" style="fill: var(--color2, #fdfdff)" opacity="0.3"
                d="M20.543 26.735l1.371 2.349c0.063 0.106 0.199 0.142 0.305 0.080 0.007-0.004 0.014-0.008 0.020-0.014 0.542-0.4 0.96-0.947 1.202-1.575 0.045-0.115-0.012-0.244-0.127-0.288-0.008-0.003-0.016-0.006-0.025-0.007l-2.634-0.694c-0.054-0.014-0.11 0.018-0.125 0.072-0.007 0.026-0.003 0.054 0.011 0.078l0.001-0.001z">
            </path>
            <path fill="#fdfdff" style="fill: var(--color2, #fdfdff)" opacity="0.3"
                d="M20.125 25.675l0.695-2.629c0.031-0.12-0.040-0.242-0.16-0.273-0.007-0.002-0.016-0.003-0.024-0.005-0.667-0.099-1.349-0.007-1.966 0.267-0.112 0.050-0.164 0.181-0.114 0.294 0.003 0.007 0.007 0.014 0.011 0.022l1.371 2.349c0.029 0.048 0.091 0.065 0.139 0.036 0.023-0.014 0.040-0.035 0.047-0.061h0.001z">
            </path>
            <path fill="#fdfdff" style="fill: var(--color2, #fdfdff)" opacity="0.3"
                d="M20.559 25.863l2.353-1.368c0.107-0.062 0.143-0.198 0.080-0.304-0.004-0.007-0.008-0.014-0.013-0.020-0.401-0.541-0.949-0.957-1.578-1.2-0.115-0.045-0.244 0.012-0.289 0.126-0.003 0.008-0.006 0.016-0.008 0.025l-0.695 2.628c-0.014 0.054 0.018 0.11 0.073 0.125 0.026 0.007 0.054 0.003 0.078-0.011l-0.001-0.001z">
            </path>
            <path fill="#fdfdff" style="fill: var(--color2, #fdfdff)" opacity="0.3"
                d="M20.732 26.302l2.633 0.693c0.118 0.032 0.241-0.039 0.272-0.157 0.003-0.008 0.004-0.018 0.005-0.026 0.1-0.666 0.008-1.346-0.265-1.962-0.051-0.113-0.183-0.163-0.297-0.112-0.007 0.003-0.013 0.007-0.020 0.011l-2.354 1.367c-0.048 0.029-0.064 0.091-0.035 0.139 0.014 0.023 0.036 0.040 0.062 0.046z">
            </path>
            <path fill="#7e8fdd" style="fill: var(--color1, #7e8fdd)"
                d="M18.145 26.48c0.112-0.014 0.209 0.017 0.216 0.071s-0.078 0.109-0.191 0.123c-0.112 0.014-0.209-0.017-0.216-0.071s0.078-0.11 0.191-0.123z">
            </path>
            <path fill="#fdfdff" style="fill: var(--color2, #fdfdff)" opacity="0.6"
                d="M18.145 26.48c0.112-0.014 0.209 0.017 0.216 0.071s-0.078 0.109-0.191 0.123c-0.112 0.014-0.209-0.017-0.216-0.071s0.078-0.11 0.191-0.123z">
            </path>
            <path fill="#7e8fdd" style="fill: var(--color1, #7e8fdd)"
                d="M18.824 27.57c0.084-0.075 0.182-0.103 0.218-0.063s-0.003 0.134-0.088 0.209c-0.085 0.074-0.182 0.104-0.219 0.063s0.006-0.131 0.089-0.209z">
            </path>
            <path fill="#fdfdff" style="fill: var(--color2, #fdfdff)" opacity="0.6"
                d="M18.824 27.57c0.084-0.075 0.182-0.103 0.218-0.063s-0.003 0.134-0.088 0.209c-0.085 0.074-0.182 0.104-0.219 0.063s0.006-0.131 0.089-0.209z">
            </path>
            <path fill="#7e8fdd" style="fill: var(--color1, #7e8fdd)"
                d="M18.781 28.475c0.067-0.091 0.155-0.14 0.199-0.108s0.025 0.131-0.040 0.223c-0.066 0.092-0.156 0.14-0.199 0.108s-0.026-0.131 0.041-0.223z">
            </path>
            <path fill="#fdfdff" style="fill: var(--color2, #fdfdff)" opacity="0.6"
                d="M18.781 28.475c0.067-0.091 0.155-0.14 0.199-0.108s0.025 0.131-0.040 0.223c-0.066 0.092-0.156 0.14-0.199 0.108s-0.026-0.131 0.041-0.223z">
            </path>
            <path fill="#7e8fdd" style="fill: var(--color1, #7e8fdd)"
                d="M21.276 24.023c0.061-0.096 0.146-0.15 0.192-0.122s0.035 0.129-0.025 0.226c-0.060 0.097-0.146 0.15-0.192 0.122s-0.033-0.128 0.025-0.226z">
            </path>
            <path fill="#fdfdff" style="fill: var(--color2, #fdfdff)" opacity="0.6"
                d="M21.276 24.023c0.061-0.096 0.146-0.15 0.192-0.122s0.035 0.129-0.025 0.226c-0.060 0.097-0.146 0.15-0.192 0.122s-0.033-0.128 0.025-0.226z">
            </path>
            <path fill="#7e8fdd" style="fill: var(--color1, #7e8fdd)"
                d="M21.251 24.907c0.066-0.092 0.155-0.14 0.199-0.109s0.025 0.131-0.041 0.223c-0.066 0.092-0.155 0.14-0.199 0.109s-0.026-0.131 0.041-0.223z">
            </path>
            <path fill="#fdfdff" style="fill: var(--color2, #fdfdff)" opacity="0.6"
                d="M21.251 24.907c0.066-0.092 0.155-0.14 0.199-0.109s0.025 0.131-0.041 0.223c-0.066 0.092-0.155 0.14-0.199 0.109s-0.026-0.131 0.041-0.223z">
            </path>
            <path fill="#fdfdff" style="fill: var(--color2, #fdfdff)" opacity="0.6"
                d="M22.422 26.111c0.112-0.018 0.209 0.011 0.218 0.064s-0.075 0.11-0.188 0.129c-0.111 0.019-0.209-0.011-0.218-0.064s0.074-0.111 0.188-0.129z">
            </path>
            <path fill="#fdfdff" style="fill: var(--color2, #fdfdff)" opacity="0.6"
                d="M18.157 24.639c-0.072-0.088-0.095-0.186-0.053-0.22s0.134 0.010 0.205 0.097c0.072 0.088 0.096 0.186 0.053 0.22s-0.133-0.009-0.205-0.097z">
            </path>
            <path fill="#fdfdff" style="fill: var(--color2, #fdfdff)" opacity="0.6"
                d="M18.426 25.375c-0.113-0.006-0.202-0.056-0.199-0.109s0.098-0.092 0.21-0.086c0.113 0.006 0.202 0.056 0.199 0.11s-0.097 0.093-0.21 0.086v-0.001z">
            </path>
            <path fill="#fdfdff" style="fill: var(--color2, #fdfdff)" opacity="0.6"
                d="M19.483 23.987c-0.012-0.112 0.024-0.207 0.077-0.213 0.053-0.005 0.106 0.082 0.117 0.194s-0.024 0.207-0.077 0.213c-0.053 0.005-0.106-0.081-0.117-0.194z">
            </path>
            <path fill="#7e8fdd" style="fill: var(--color1, #7e8fdd)"
                d="M20.639 28.754c-0.012-0.111 0.022-0.207 0.074-0.213s0.107 0.081 0.119 0.194c0.013 0.112-0.022 0.207-0.074 0.213s-0.106-0.081-0.119-0.194z">
            </path>
            <path fill="#fdfdff" style="fill: var(--color2, #fdfdff)" opacity="0.6"
                d="M20.639 28.754c-0.012-0.111 0.022-0.207 0.074-0.213s0.107 0.081 0.119 0.194c0.013 0.112-0.022 0.207-0.074 0.213s-0.106-0.081-0.119-0.194z">
            </path>
            <path fill="#7e8fdd" style="fill: var(--color1, #7e8fdd)"
                d="M21.516 27.356c-0.095-0.063-0.146-0.15-0.117-0.195s0.131-0.031 0.226 0.031c0.095 0.062 0.146 0.149 0.117 0.195s-0.132 0.030-0.226-0.031z">
            </path>
            <path fill="#fdfdff" style="fill: var(--color2, #fdfdff)" opacity="0.6"
                d="M21.516 27.356c-0.095-0.063-0.146-0.15-0.117-0.195s0.131-0.031 0.226 0.031c0.095 0.062 0.146 0.149 0.117 0.195s-0.132 0.030-0.226-0.031z">
            </path>
            <path fill="#7e8fdd" style="fill: var(--color1, #7e8fdd)"
                d="M22.297 10.996h-15.877c0 0 0.091 4.781 5.064 5.828 0 0-0.33 3.322 2.464 3.659v7.954c-2.952 0.189-4.185 1.994-4.185 1.994h9.555c0 0-1.395-1.806-4.366-1.994v-7.979c2.599-0.456 2.282-3.633 2.282-3.633 4.973-1.047 5.064-5.828 5.064-5.828v-0.001z">
            </path>
            <path fill="#fdfdff" style="fill: var(--color2, #fdfdff)" opacity="0.7"
                d="M22.297 10.996h-15.877c0 0 0.091 4.781 5.064 5.828 0 0-0.33 3.322 2.464 3.659v7.954c-2.952 0.189-4.185 1.994-4.185 1.994h9.555c0 0-1.395-1.806-4.366-1.994v-7.979c2.599-0.456 2.282-3.633 2.282-3.633 4.973-1.047 5.064-5.828 5.064-5.828v-0.001z">
            </path>
            <path fill="#fdfdff" style="fill: var(--color2, #fdfdff)" opacity="0.4"
                d="M21.459 10.996h-13.797c0 0 0.145 4.25 4.467 5.164 0 0-0.473 3.613 2.35 3.613h0.209c2.259-0.398 2.004-3.708 2.004-3.708 4.562-1.133 4.768-5.070 4.768-5.070h-0.001z">
            </path>
            <path fill="#7e8fdd" style="fill: var(--color1, #7e8fdd)" opacity="0.9"
                d="M22.297 10.996c0 0.305-3.554 0.553-7.938 0.553s-7.938-0.248-7.938-0.553 3.554-0.553 7.938-0.553c4.384 0 7.938 0.248 7.938 0.553z">
            </path>
            <path fill="#fdfdff" style="fill: var(--color2, #fdfdff)" opacity="0.7"
                d="M22.297 10.996c0 0.305-3.554 0.553-7.938 0.553s-7.938-0.248-7.938-0.553 3.554-0.553 7.938-0.553c4.384 0 7.938 0.248 7.938 0.553z">
            </path>
            <path fill="#7e8fdd" style="fill: var(--color1, #7e8fdd)" opacity="0.9"
                d="M20.332 13.819c-0.678 1.098-1.93 1.822-3.641 2.247 0 0 0.255 3.311-2.004 3.708h-0.209c-2.823 0-2.35-3.613-2.35-3.613-1.621-0.343-2.869-1.079-3.565-2.407 0 0 2.254-0.159 4.233 0.156s3.262 0.561 5.287 0.18c1.292-0.244 2.249-0.271 2.249-0.271l0.001 0.001z">
            </path>
            <path fill="#242424" style="fill: var(--color4, #242424)" opacity="0.3"
                d="M8.563 13.753c0 0 2.875 1.315 6.949 1.064s4.82-0.998 4.82-0.998-1.227 0.028-2.248 0.271c-1.021 0.243-2.619 0.191-3.324 0.11-0.686-0.078-3.651-0.683-6.197-0.446v-0.001z">
            </path>
            <path fill="#7e8fdd" style="fill: var(--color1, #7e8fdd)"
                d="M11.309 15.546l-8.383-11.028 0.417-0.344 8.441 11.073c0 0 0.007 0.405-0.476 0.299v-0.001z"></path>
            <path fill="#242424" style="fill: var(--color4, #242424)" opacity="0.3"
                d="M11.309 15.546l-8.383-11.028 0.417-0.344 8.441 11.073c0 0 0.007 0.405-0.476 0.299v-0.001z"></path>
            <path fill="#7e8fdd" style="fill: var(--color1, #7e8fdd)"
                d="M10.565 8.279c-0.057-0.102-0.115-0.201-0.182-0.3-1.27-1.902-3.758-2.473-5.557-1.276s-2.227 3.71-0.957 5.61c0.065 0.099 0.135 0.192 0.208 0.284l6.489-4.319z">
            </path>
            <path fill="#242424" style="fill: var(--color4, #242424)" opacity="0.3"
                d="M10.565 8.279c-0.057-0.102-0.115-0.201-0.182-0.3-1.27-1.902-3.758-2.473-5.557-1.276s-2.227 3.71-0.957 5.61c0.065 0.099 0.135 0.192 0.208 0.284l6.489-4.319z">
            </path>
            <path fill="#7e8fdd" style="fill: var(--color1, #7e8fdd)"
                d="M10.575 8.273c-0.022-0.035-0.042-0.068-0.064-0.102-1.199-1.796-3.63-2.28-5.429-1.083s-2.285 3.623-1.085 5.418c0.023 0.034 0.046 0.066 0.069 0.099l6.509-4.332z">
            </path>
            <path fill="#fdfdff" style="fill: var(--color2, #fdfdff)" opacity="0.8"
                d="M10.439 8.358c-0.019-0.032-0.040-0.065-0.060-0.096-1.151-1.723-3.484-2.188-5.211-1.039s-2.193 3.478-1.042 5.201c0.022 0.032 0.044 0.062 0.063 0.092l6.25-4.157z">
            </path>
            <path fill="#7e8fdd" style="fill: var(--color1, #7e8fdd)"
                d="M7.656 9.911l2.16-1.443c0.098-0.067 0.123-0.2 0.056-0.298-0.003-0.006-0.008-0.011-0.012-0.016-0.414-0.493-0.96-0.857-1.574-1.052-0.112-0.035-0.232 0.027-0.268 0.138-0.003 0.008-0.004 0.015-0.006 0.023l-0.509 2.545c-0.012 0.053 0.022 0.105 0.075 0.117 0.027 0.006 0.056 0 0.079-0.016v0.002z">
            </path>
            <path fill="#7e8fdd" style="fill: var(--color1, #7e8fdd)"
                d="M7.232 9.756l0.51-2.546c0.023-0.115-0.052-0.228-0.167-0.25-0.008-0.002-0.015-0.003-0.023-0.003-0.642-0.056-1.286 0.072-1.858 0.368-0.105 0.053-0.146 0.18-0.093 0.285 0.004 0.008 0.008 0.015 0.013 0.022l1.446 2.162c0.034 0.043 0.096 0.050 0.139 0.016 0.017-0.014 0.029-0.031 0.034-0.052z">
            </path>
            <path fill="#7e8fdd" style="fill: var(--color1, #7e8fdd)"
                d="M6.668 10.37l-2.551-0.51c-0.116-0.023-0.229 0.052-0.252 0.169-0.002 0.008-0.003 0.015-0.003 0.023-0.056 0.641 0.072 1.284 0.368 1.855 0.054 0.105 0.182 0.146 0.287 0.092 0.007-0.003 0.014-0.008 0.020-0.012l2.164-1.441c0.044-0.032 0.053-0.094 0.021-0.137-0.013-0.019-0.033-0.032-0.056-0.037l0.001-0.001z">
            </path>
            <path fill="#7e8fdd" style="fill: var(--color1, #7e8fdd)"
                d="M6.822 9.945l-1.444-2.16c-0.067-0.098-0.2-0.122-0.298-0.056-0.006 0.003-0.011 0.008-0.016 0.012-0.494 0.413-0.859 0.958-1.054 1.571-0.035 0.113 0.027 0.233 0.139 0.268 0.007 0.003 0.014 0.004 0.022 0.006l2.55 0.508c0.054 0.009 0.105-0.027 0.113-0.081 0.004-0.024-0.001-0.049-0.014-0.069h0.002z">
            </path>
            <path fill="#fdfdff" style="fill: var(--color2, #fdfdff)" opacity="0.3"
                d="M7.656 9.911l2.16-1.443c0.098-0.067 0.123-0.2 0.056-0.298-0.003-0.006-0.008-0.011-0.012-0.016-0.414-0.493-0.96-0.857-1.574-1.052-0.112-0.035-0.232 0.027-0.268 0.138-0.003 0.008-0.004 0.015-0.006 0.023l-0.509 2.545c-0.012 0.053 0.022 0.105 0.075 0.117 0.027 0.006 0.056 0 0.079-0.016v0.002z">
            </path>
            <path fill="#fdfdff" style="fill: var(--color2, #fdfdff)" opacity="0.3"
                d="M7.232 9.756l0.51-2.546c0.023-0.115-0.052-0.228-0.167-0.25-0.008-0.002-0.015-0.003-0.023-0.003-0.642-0.056-1.286 0.072-1.858 0.368-0.105 0.053-0.146 0.18-0.093 0.285 0.004 0.008 0.008 0.015 0.013 0.022l1.446 2.162c0.034 0.043 0.096 0.050 0.139 0.016 0.017-0.014 0.029-0.031 0.034-0.052z">
            </path>
            <path fill="#fdfdff" style="fill: var(--color2, #fdfdff)" opacity="0.3"
                d="M6.668 10.37l-2.551-0.51c-0.116-0.023-0.229 0.052-0.252 0.169-0.002 0.008-0.003 0.015-0.003 0.023-0.056 0.641 0.072 1.284 0.368 1.855 0.054 0.105 0.182 0.146 0.287 0.092 0.007-0.003 0.014-0.008 0.020-0.012l2.164-1.441c0.044-0.032 0.053-0.094 0.021-0.137-0.013-0.019-0.033-0.032-0.056-0.037l0.001-0.001z">
            </path>
            <path fill="#fdfdff" style="fill: var(--color2, #fdfdff)" opacity="0.3"
                d="M6.822 9.945l-1.444-2.16c-0.067-0.098-0.2-0.122-0.298-0.056-0.006 0.003-0.011 0.008-0.016 0.012-0.494 0.413-0.859 0.958-1.054 1.571-0.035 0.113 0.027 0.233 0.139 0.268 0.007 0.003 0.014 0.004 0.022 0.006l2.55 0.508c0.054 0.009 0.105-0.027 0.113-0.081 0.004-0.024-0.001-0.049-0.014-0.069h0.002z">
            </path>
            <path fill="#7e8fdd" style="fill: var(--color1, #7e8fdd)"
                d="M4.987 11.231c-0.104 0.031-0.199 0.016-0.214-0.033s0.057-0.116 0.16-0.146c0.104-0.031 0.2-0.015 0.215 0.035s-0.058 0.116-0.16 0.145l-0.001-0.001z">
            </path>
            <path fill="#fdfdff" style="fill: var(--color2, #fdfdff)" opacity="0.6"
                d="M4.987 11.231c-0.104 0.031-0.199 0.016-0.214-0.033s0.057-0.116 0.16-0.146c0.104-0.031 0.2-0.015 0.215 0.035s-0.058 0.116-0.16 0.145l-0.001-0.001z">
            </path>
            <path fill="#7e8fdd" style="fill: var(--color1, #7e8fdd)"
                d="M5.566 10.615c-0.106 0.024-0.201 0.003-0.211-0.048s0.062-0.112 0.169-0.132c0.107-0.020 0.201-0.003 0.212 0.049s-0.064 0.109-0.17 0.132v-0.001z">
            </path>
            <path fill="#fdfdff" style="fill: var(--color2, #fdfdff)" opacity="0.6"
                d="M5.566 10.615c-0.106 0.024-0.201 0.003-0.211-0.048s0.062-0.112 0.169-0.132c0.107-0.020 0.201-0.003 0.212 0.049s-0.064 0.109-0.17 0.132v-0.001z">
            </path>
            <path fill="#7e8fdd" style="fill: var(--color1, #7e8fdd)"
                d="M8.444 8.252c-0.063 0.087-0.149 0.135-0.191 0.105s-0.024-0.126 0.037-0.213 0.148-0.135 0.19-0.105c0.042 0.030 0.025 0.126-0.036 0.214z">
            </path>
            <path fill="#fdfdff" style="fill: var(--color2, #fdfdff)" opacity="0.6"
                d="M8.444 8.252c-0.063 0.087-0.149 0.135-0.191 0.105s-0.024-0.126 0.037-0.213 0.148-0.135 0.19-0.105c0.042 0.030 0.025 0.126-0.036 0.214z">
            </path>
            <path fill="#fdfdff" style="fill: var(--color2, #fdfdff)" opacity="0.6"
                d="M5.611 9.095c0.080 0.073 0.118 0.163 0.083 0.201s-0.128 0.011-0.208-0.061c-0.080-0.072-0.117-0.162-0.083-0.201s0.128-0.011 0.208 0.061z">
            </path>
            <path fill="#7e8fdd" style="fill: var(--color1, #7e8fdd)"
                d="M5.289 6.007c0.046 0.462-0.291 0.873-0.753 0.92s-0.875-0.29-0.922-0.752 0.291-0.873 0.753-0.92c0.463-0.046 0.875 0.29 0.922 0.752z">
            </path>
            <path fill="#fdfdff" style="fill: var(--color2, #fdfdff)" opacity="0.3"
                d="M3.803 5.766c0 0-0.202 0.328-0.024 0.649s0.438 0.384 0.438 0.384 0.005-0.325-0.020-0.639c-0.025-0.314-0.394-0.395-0.394-0.395h0.001z">
            </path>
            <path fill="#fdfdff" style="fill: var(--color2, #fdfdff)" opacity="0.27"
                d="M21.432 11.282c-4.462 0.361-9.048 0.348-13.743 0.002 0 0 0.012 2.129 1.872 3.71 0.622 0.529 1.492 0.937 2.574 1.165 0 0-0.473 3.613 2.35 3.613h0.209c2.259-0.398 2.004-3.708 2.004-3.708 1.011-0.251 1.802-0.53 2.431-0.983 2.207-1.592 2.303-3.8 2.303-3.8z">
            </path>
            <path fill="#9cdfdf" style="fill: var(--color3, #9cdfdf)"
                d="M22.297 10.996c-0.005 0.044-0.052 0.064-0.087 0.082-0.271 0.109-0.568 0.137-0.855 0.18-0.993 0.124-1.994 0.175-2.994 0.22-3.663 0.12-7.35 0.156-10.999-0.22-0.287-0.043-0.584-0.072-0.855-0.18-0.035-0.019-0.081-0.039-0.087-0.082 0.005 0.044 0.052 0.063 0.087 0.082 0.271 0.108 0.568 0.136 0.855 0.178 3.651 0.366 7.335 0.315 10.999 0.212 0.999-0.042 2-0.091 2.994-0.212 0.287-0.042 0.584-0.070 0.855-0.178 0.035-0.019 0.081-0.038 0.087-0.082z">
            </path>
            <path fill="#242424" style="fill: var(--color4, #242424)" opacity="0.3"
                d="M13.948 20.482v0.21c0 0 0.547 0.105 1.003-0.032v-0.203c-0.371 0.091-0.593 0.087-0.981 0.030z"></path>
            <path fill="#9cdfdf" style="fill: var(--color3, #9cdfdf)"
                d="M12.941 28.593c0.922-0.243 1.905-0.267 2.837-0.071-0.938-0.169-1.908-0.146-2.837 0.071z"></path>
            <path fill="#fdfdff" style="fill: var(--color2, #fdfdff)" opacity="0.3"
                d="M14.359 17.242c0.126 0 0.228-0.102 0.228-0.227s-0.102-0.228-0.228-0.228-0.228 0.102-0.228 0.228c0 0.126 0.102 0.227 0.228 0.227z">
            </path>
            <path fill="#fdfdff" style="fill: var(--color2, #fdfdff)" opacity="0.3"
                d="M13.72 17.766c0 0.096-0.078 0.174-0.174 0.174s-0.174-0.078-0.174-0.174c0-0.096 0.078-0.174 0.174-0.174s0.174 0.078 0.174 0.174z">
            </path>
            <path fill="#fdfdff" style="fill: var(--color2, #fdfdff)" opacity="0.3"
                d="M15.881 18.303c0.062 0 0.112-0.050 0.112-0.111s-0.050-0.111-0.112-0.111c-0.062 0-0.111 0.050-0.111 0.111s0.050 0.111 0.111 0.111z">
            </path>
            <path fill="#fdfdff" style="fill: var(--color2, #fdfdff)" opacity="0.3"
                d="M13.398 16.855c0.062 0 0.111-0.050 0.111-0.111s-0.050-0.111-0.111-0.111c-0.062 0-0.111 0.050-0.111 0.111s0.050 0.111 0.111 0.111z">
            </path>
            <path fill="#fdfdff" style="fill: var(--color2, #fdfdff)" opacity="0.3"
                d="M15.424 18.719c0 0.155-0.126 0.281-0.281 0.281s-0.281-0.126-0.281-0.281c0-0.155 0.126-0.281 0.281-0.281s0.281 0.126 0.281 0.281z">
            </path>
        </symbol>
        <symbol id="icon-pagination-arrow-more" viewBox="0 0 32 32">
            <path fill="#7e8fdd" style="fill: var(--color1, #7e8fdd)"
                d="M17.455 16.667l-6.788 6.741 1.939 1.926 8.728-8.667-8.728-8.667-1.939 1.926 6.788 6.741z"></path>
        </symbol>
        <symbol id="icon-pagination-arrow-less" viewBox="0 0 32 32">
            <path d="M14.545 16.667l6.788 6.741-1.939 1.926-8.727-8.667 8.727-8.667 1.939 1.926-6.788 6.741z"></path>
        </symbol>
        <symbol id="icon-youtube" viewBox="0 0 32 32">
            <path fill="#fdfdff" style="fill: var(--color2, #fdfdff)"
                d="M24.24 6c-1.36-0.080-4.16-0.16-8.4-0.16h-0.56c-4.080 0-6.8 0.080-8.16 0.24-1.84 0.16-3.12 0.64-3.84 1.28-0.64 0.56-1.12 1.6-1.28 2.96-0.080 0.88-0.16 2.72-0.16 5.52v0.4c0 2.64 0.080 4.48 0.24 5.36 0.24 1.28 0.64 2.24 1.44 2.8 0.8 0.64 2.16 1.040 4.080 1.2 1.36 0.080 4.16 0.16 8.4 0.16h0.56c4.080 0 6.8-0.080 8.16-0.24 1.84-0.16 3.12-0.64 3.84-1.28 0.64-0.56 1.12-1.6 1.28-2.96 0.080-0.88 0.16-2.72 0.16-5.52v-0.4c0-2.64-0.080-4.48-0.24-5.36-0.24-1.28-0.64-2.24-1.44-2.8-0.8-0.64-2.16-1.040-4.080-1.2zM21.12 15.84l-8.8 5.28v-10.56l8.8 5.28z">
            </path>
        </symbol>
        <symbol id="icon-instagram" viewBox="0 0 32 32">
            <path fill="#fdfdff" style="fill: var(--color2, #fdfdff)"
                d="M23.983 6.229c-0.354 0-0.701 0.105-0.996 0.302s-0.524 0.477-0.66 0.804c-0.136 0.327-0.171 0.688-0.102 1.035s0.24 0.667 0.491 0.918c0.251 0.251 0.57 0.421 0.917 0.49s0.708 0.034 1.035-0.102c0.328-0.136 0.607-0.365 0.804-0.66s0.302-0.641 0.302-0.996c0-0.475-0.189-0.931-0.525-1.267s-0.792-0.525-1.267-0.525zM30.852 9.843c-0.029-1.239-0.261-2.465-0.687-3.629-0.38-0.996-0.971-1.898-1.732-2.643-0.739-0.765-1.643-1.353-2.643-1.717-1.161-0.439-2.388-0.676-3.629-0.702-1.583-0.090-2.091-0.090-6.152-0.090s-4.57 0-6.152 0.090c-1.241 0.026-2.468 0.263-3.629 0.702-0.998 0.368-1.901 0.955-2.643 1.717-0.765 0.739-1.353 1.643-1.717 2.643-0.439 1.161-0.676 2.388-0.702 3.629-0.090 1.583-0.090 2.091-0.090 6.153s0 4.57 0.090 6.152c0.026 1.241 0.263 2.468 0.702 3.629 0.365 1 0.952 1.904 1.717 2.643 0.742 0.762 1.645 1.349 2.643 1.717 1.161 0.439 2.388 0.676 3.629 0.702 1.583 0.090 2.091 0.090 6.152 0.090s4.57 0 6.152-0.090c1.241-0.026 2.468-0.263 3.629-0.702 1-0.365 1.904-0.952 2.643-1.717 0.765-0.743 1.356-1.645 1.732-2.643 0.426-1.164 0.658-2.39 0.687-3.629 0-1.583 0.090-2.091 0.090-6.152s0-4.57-0.090-6.153zM28.164 21.969c-0.011 0.948-0.183 1.887-0.508 2.778-0.238 0.65-0.621 1.237-1.12 1.717-0.484 0.493-1.070 0.876-1.717 1.12-0.891 0.325-1.83 0.497-2.778 0.508-1.493 0.075-2.046 0.090-5.973 0.090s-4.48 0-5.973-0.090c-0.984 0.018-1.964-0.133-2.897-0.448-0.619-0.257-1.178-0.638-1.643-1.12-0.496-0.48-0.874-1.068-1.105-1.717-0.365-0.903-0.567-1.864-0.597-2.837 0-1.493-0.090-2.046-0.090-5.973s0-4.48 0.090-5.973c0.007-0.969 0.184-1.929 0.523-2.837 0.263-0.63 0.666-1.192 1.18-1.643 0.454-0.513 1.014-0.921 1.643-1.195 0.91-0.328 1.87-0.5 2.837-0.508 1.493 0 2.046-0.090 5.973-0.090s4.48 0 5.973 0.090c0.948 0.011 1.887 0.183 2.778 0.508 0.679 0.252 1.288 0.661 1.777 1.195 0.489 0.459 0.872 1.020 1.12 1.643 0.332 0.909 0.504 1.869 0.508 2.837 0.075 1.493 0.090 2.046 0.090 5.973s-0.015 4.48-0.090 5.973zM16.008 8.335c-1.514 0.003-2.994 0.455-4.252 1.298s-2.237 2.041-2.815 3.441c-0.578 1.4-0.727 2.94-0.43 4.425s1.028 2.849 2.1 3.919c1.072 1.070 2.437 1.798 3.923 2.092s3.025 0.142 4.424-0.439c1.399-0.58 2.595-1.562 3.436-2.822s1.29-2.74 1.29-4.255c0.002-1.008-0.195-2.006-0.58-2.937s-0.951-1.777-1.664-2.489c-0.713-0.712-1.56-1.276-2.492-1.659s-1.931-0.579-2.939-0.575zM16.008 20.969c-0.983 0-1.945-0.292-2.763-0.838s-1.455-1.323-1.832-2.232c-0.376-0.909-0.475-1.909-0.283-2.873s0.665-1.851 1.361-2.546c0.695-0.695 1.582-1.169 2.546-1.361s1.965-0.093 2.873 0.283 1.685 1.014 2.232 1.832c0.546 0.818 0.838 1.779 0.838 2.763 0 0.653-0.129 1.3-0.379 1.903s-0.616 1.152-1.078 1.613c-0.462 0.462-1.010 0.828-1.613 1.078s-1.25 0.379-1.903 0.379z">
            </path>
        </symbol>
        <symbol id="icon-footer-facebook" viewBox="0 0 18 32">
            <path fill="#fdfdff" style="fill: var(--color2, #fdfdff)"
                d="M14.45 5.602h2.924v-4.947c-1.416-0.147-2.839-0.22-4.262-0.218-4.231 0-7.124 2.582-7.124 7.311v4.076h-4.776v5.538h4.776v14.187h5.724v-14.187h4.76l0.716-5.538h-5.476v-3.531c0-1.633 0.436-2.691 2.738-2.691z">
            </path>
        </symbol>
        <symbol id="icon-remove" viewBox="0 0 32 32">
            <path fill="none" stroke="#fdfdff" style="stroke: var(--color2, #fdfdff)" stroke-linejoin="round"
                stroke-linecap="round" stroke-miterlimit="4" stroke-width="2.6667"
                d="M21.333 8v-1.067c0-1.493 0-2.24-0.291-2.811-0.256-0.502-0.664-0.91-1.165-1.165-0.57-0.291-1.317-0.291-2.811-0.291h-2.133c-1.493 0-2.24 0-2.811 0.291-0.502 0.256-0.91 0.664-1.165 1.165-0.291 0.57-0.291 1.317-0.291 2.811v1.067M13.333 15.333v6.667M18.667 15.333v6.667M4 8h24M25.333 8v14.933c0 2.24 0 3.36-0.436 4.216-0.383 0.753-0.995 1.365-1.748 1.748-0.856 0.436-1.976 0.436-4.216 0.436h-5.867c-2.24 0-3.36 0-4.216-0.436-0.753-0.383-1.365-0.995-1.748-1.748-0.436-0.856-0.436-1.976-0.436-4.216v-14.933">
            </path>
        </symbol>
        <symbol id="icon-close" viewBox="0 0 32 32">
            <path stroke-linejoin="round" stroke-linecap="round" stroke-miterlimit="4" stroke-width="2.6667"
                d="M24 8l-16 16"></path>
            <path stroke-linejoin="round" stroke-linecap="round" stroke-miterlimit="4" stroke-width="2.6667"
                d="M8 8l16 16"></path>
        </symbol>
        <symbol id="icon-footer-heart" viewBox="0 0 32 32">
            <path fill="none" stroke="#fdfdff" style="stroke: var(--color2, #fdfdff)" stroke-linejoin="round"
                stroke-linecap="round" stroke-miterlimit="4" stroke-width="2.6667"
                d="M27.787 6.146c-0.681-0.681-1.49-1.222-2.379-1.591s-1.844-0.559-2.807-0.559-1.917 0.19-2.807 0.559c-0.89 0.369-1.699 0.909-2.38 1.591l-1.413 1.413-1.413-1.413c-1.376-1.376-3.241-2.148-5.187-2.148s-3.811 0.773-5.187 2.148c-1.376 1.376-2.148 3.241-2.148 5.187s0.773 3.811 2.148 5.187l11.787 11.787 11.787-11.787c0.681-0.681 1.222-1.49 1.591-2.38s0.559-1.844 0.559-2.807-0.19-1.917-0.559-2.807c-0.369-0.89-0.909-1.699-1.591-2.38z">
            </path>
        </symbol>
        <symbol id="icon-hero-background" viewBox="0 0 32 32">
            <path
                d="M7.217 20.604c4.848-1.499 10.151 0.123 13.332 4.076-1.499-4.848 0.123-10.151 4.076-13.332-4.848 1.499-10.151-0.123-13.332-4.076 1.499 4.848-0.123 10.151-4.076 13.332zM5.426 21.314c5.446-3.151 7.532-9.974 4.779-15.632l0.378-0.201c3.151 5.446 9.974 7.532 15.632 4.779l0.201 0.378c-5.446 3.151-7.532 9.974-4.779 15.632l-0.377 0.201c-3.151-5.446-9.974-7.532-15.632-4.779l-0.201-0.378z">
            </path>
            <path
                d="M21.015 22.593c0.291 1.034 0.442 1.884 0.45 2.499 0.004 0.309-0.028 0.535-0.080 0.688-0.051 0.151-0.109 0.197-0.139 0.213s-0.101 0.038-0.254-0.004c-0.156-0.043-0.361-0.143-0.615-0.319-0.506-0.351-1.126-0.951-1.82-1.771-1.384-1.634-3.002-4.071-4.518-6.922s-2.631-5.556-3.212-7.617c-0.291-1.034-0.442-1.884-0.45-2.499-0.004-0.309 0.028-0.535 0.080-0.688 0.051-0.151 0.109-0.197 0.139-0.213s0.101-0.038 0.254 0.004c0.156 0.043 0.361 0.143 0.615 0.319 0.506 0.351 1.126 0.951 1.821 1.771 1.384 1.634 3.002 4.070 4.518 6.922s2.631 5.556 3.212 7.617zM21.447 26.37c1.248-0.664-0.215-5.855-3.267-11.595s-6.538-9.856-7.786-9.193c-1.248 0.664 0.215 5.855 3.267 11.595s6.538 9.856 7.786 9.193z">
            </path>
            <path
                d="M9.305 21.070c-1.034 0.291-1.884 0.442-2.499 0.45-0.309 0.004-0.535-0.028-0.688-0.080-0.151-0.051-0.197-0.109-0.213-0.139s-0.038-0.101 0.004-0.254c0.043-0.156 0.143-0.361 0.319-0.615 0.351-0.506 0.951-1.126 1.771-1.82 1.634-1.384 4.071-3.002 6.922-4.518s5.556-2.631 7.617-3.212c1.034-0.291 1.884-0.442 2.499-0.45 0.309-0.004 0.535 0.028 0.688 0.079 0.151 0.051 0.197 0.109 0.213 0.139s0.038 0.101-0.004 0.254c-0.043 0.156-0.143 0.361-0.319 0.615-0.352 0.506-0.951 1.126-1.771 1.82-1.634 1.384-4.071 3.002-6.922 4.518s-5.556 2.631-7.617 3.212zM5.527 21.503c0.663 1.248 5.855-0.215 11.595-3.267s9.856-6.538 9.193-7.786c-0.664-1.248-5.855 0.215-11.595 3.267s-9.856 6.538-9.193 7.786z">
            </path>
        </symbol>
        <symbol id="icon-search" viewBox="0 0 32 32">
            <path
                d="M29.091 31.514l-6.85-6.862c-1.077 0.935-2.334 1.663-3.77 2.185s-2.962 0.782-4.578 0.782c-3.877 0-7.163-1.349-9.855-4.046s-4.039-5.952-4.039-9.764c0-3.812 1.346-7.067 4.039-9.764s5.96-4.046 9.801-4.046c3.806 0 7.046 1.349 9.721 4.046s4.012 5.952 4.012 9.764c0 1.546-0.251 3.039-0.754 4.477s-1.257 2.787-2.262 4.046l6.958 6.862c0.323 0.288 0.485 0.656 0.485 1.106s-0.179 0.854-0.539 1.214c-0.323 0.324-0.718 0.486-1.185 0.486s-0.862-0.162-1.185-0.486zM13.839 24.383c2.908 0 5.385-1.034 7.432-3.102s3.070-4.558 3.070-7.471-1.023-5.403-3.070-7.471c-2.046-2.068-4.524-3.102-7.432-3.102-2.944 0-5.448 1.034-7.513 3.102s-3.097 4.558-3.097 7.471c0 2.913 1.032 5.403 3.097 7.471s4.569 3.102 7.513 3.102z">
            </path>
        </symbol>
        <symbol id="icon-hero-logo-cocktail" viewBox="0 0 37 32">
            <path
                d="M25.707 1.067c-2.027 1.173-0.64 4.373 1.493 3.627 1.707-0.64 2.133-3.093 0.747-4.053-0.427-0.213-1.493-0.107-2.24 0.427z">
            </path>
            <path
                d="M14.72 6.187c-7.787 0.213-10.453 0.64-10.453 1.707 0 0.747 3.093 4.267 6.933 7.787 6.613 6.080 6.933 6.613 7.040 11.627l0.213 5.227 0.64-5.653c0.64-5.227 1.173-6.080 7.36-11.52 3.627-3.307 6.613-6.613 6.613-7.36 0-1.707-4.907-2.24-18.347-1.813zM22.187 9.813c-0.32 0.747-2.773 1.6-5.653 1.92l-5.227 0.533 3.52 2.88c2.56 2.24 3.947 2.773 5.227 2.027 2.667-1.387 6.080-5.44 4.693-5.44-0.747 0-1.28-0.747-1.28-1.6 0-1.067 1.067-1.6 3.413-1.6h3.413l-5.227 5.333c-2.88 2.88-5.76 5.333-6.4 5.333s-3.52-2.453-6.4-5.333l-5.227-5.333h7.787c5.76 0 7.68 0.32 7.36 1.28z">
            </path>
        </symbol>
       <symbol id="icon-align-justify" viewBox="0 0 32 32">
<path stroke-linejoin="round" stroke-linecap="round" stroke-miterlimit="4" stroke-width="2" d="M28 13.334h-24"></path>
<path stroke-linejoin="round" stroke-linecap="round" stroke-miterlimit="4" stroke-width="2" d="M28 8h-24"></path>
<path stroke-linejoin="round" stroke-linecap="round" stroke-miterlimit="4" stroke-width="2" d="M28 18.666h-24"></path>
<path stroke-linejoin="round" stroke-linecap="round" stroke-miterlimit="4" stroke-width="2" d="M28 24h-24"></path>
</symbol>
        <symbol id="icon-hero-rectangle" viewBox="0 0 27 32">
            <path fill="#7e8fdd" style="fill: var(--color1, #7e8fdd)"
                d="M3.834 6.492c0-2.259 1.831-4.089 4.089-4.089h15.335v20.243c0 2.259-1.831 4.089-4.089 4.089h-15.335v-20.243z">
            </path>
        </symbol>
        <symbol id="icon-round-hero" viewBox="0 0 32 32">
            <path fill="#7e8fdd" style="fill: var(--color1, #7e8fdd)"
                d="M32 16c0 8.837-7.163 16-16 16s-16-7.163-16-16c0-8.837 7.163-16 16-16s16 7.163 16 16z"></path>
        </symbol>
        <symbol id="icon-round-hero-second" viewBox="0 0 32 32">
            <path fill="#9cdfdf" style="fill: var(--color1, #9cdfdf)"
                d="M32 16c0 8.837-7.163 16-16 16s-16-7.163-16-16c0-8.837 7.163-16 16-16s16 7.163 16 16z"></path>
        </symbol>
        <symbol id="icon-burger-arrow-down"  width="24" height="24" viewBox="0 0 24 24" fill="none">
            <path d="M6 9L12 15L18 9" stroke="#FDFDFF" stroke-width="2" stroke-linecap="round" stroke-linejoin="round"/>
        </symbol>
    </defs>
</svg>