<?xml version="1.0" encoding="iso-8859-1"?>
<!-- Uploaded to: SVG Repo, www.svgrepo.com, Generator: SVG Repo Mixer Tools -->
<svg fill="#000000" height="800px" width="800px" version="1.1" id="Layer_1" xmlns="http://www.w3.org/2000/svg" xmlns:xlink="http://www.w3.org/1999/xlink" 
	 viewBox="0 0 512 512" xml:space="preserve">
<g>
	<g>
		<path d="M310.874,304.57v-97.138h-0.001l76.914-44.409l-16.428-28.453l-76.914,44.407l-84.125-48.569V41.594h-32.856v88.813
			l-84.123,48.568L16.427,134.57L0,163.023l76.914,44.407v97.137L0,348.975l16.428,28.453l76.754-44.313l84.283,48.493v88.797
			h32.856v-88.813l84.125-48.569l76.914,44.407l16.428-28.453L310.874,304.57z M278.019,304.567h-0.001l-84.138,48.577
			l-84.109-48.392V207.43l84.123-48.569l84.125,48.569V304.567z"/>
	</g>
</g>
<g>
	<g>
		<path d="M425.401,105.491c-16.411,0-28.289,14.021-28.289,29.525c0,15.093,11.217,29.855,27.959,29.855
			c16.495,0,28.205-14.185,28.205-29.525C453.277,120.418,442.226,105.491,425.401,105.491z M425.237,150.603
			c-8,0-11.794-7.587-11.794-15.422c0-7.67,3.628-15.422,11.711-15.422c7.917,0,11.793,7.34,11.793,15.258
			C436.947,142.685,433.402,150.603,425.237,150.603z"/>
	</g>
</g>
<g>
	<g>
		<polygon points="495.917,105.82 495.917,127.428 476.289,127.428 476.289,105.82 460.206,105.82 460.206,164.376 476.289,164.376 
			476.289,141.448 495.917,141.448 495.917,164.376 512,164.376 512,105.82 		"/>
	</g>
</g>
</svg>